<svg width="144" height="144" viewBox="0 0 144 144" fill="none" xmlns="http://www.w3.org/2000/svg">
<g clip-path="url(#clip0)">
<path d="M10.4217 67.4612L0 71.7781L10.0671 96.0823L25.3499 89.7519L10.4217 67.4612Z" fill="#B09B7A"/>
<path d="M131.585 31.5103C125.982 17.9825 110.418 11.5351 96.8896 17.139L10.7661 52.8125L40.9037 97.8147L75.0601 83.6667V96.9015C78.6545 94.3956 83.0187 92.9204 87.7226 92.9204C92.427 92.9204 96.7909 94.3956 100.385 96.9015V73.1764L117.213 66.2059C130.742 60.6026 137.188 45.0382 131.585 31.5103Z" fill="#B09B7A"/>
<path d="M105.943 102.458C108.449 106.052 109.924 110.416 109.924 115.12C109.924 119.825 108.449 124.189 105.943 127.783H144V102.457H105.943V102.458Z" fill="#B09B7A"/>
<path d="M87.7236 128.883C95.3246 128.883 101.486 122.721 101.486 115.12C101.486 107.519 95.3246 101.357 87.7236 101.357C80.1227 101.357 73.9609 107.519 73.9609 115.12C73.9609 122.721 80.1227 128.883 87.7236 128.883Z" fill="#B09B7A"/>
</g>
<defs>
<clipPath id="clip0">
<rect width="144" height="144" fill="white"/>
</clipPath>
</defs>
</svg>
