<svg width="143" height="143" viewBox="0 0 143 143" fill="none" xmlns="http://www.w3.org/2000/svg">
<g clip-path="url(#clip0)">
<path d="M92.2305 13.8957C92.6028 12.7869 92.4925 11.5759 91.9319 10.5531C91.3675 9.53032 90.4059 8.78992 89.2728 8.50755L55.7576 0.128763C55.0948 -0.0430023 54.391 -0.0430023 53.7283 0.128763L20.2131 8.50755C19.0797 8.78992 18.1184 9.53032 17.5539 10.5531C16.9934 11.5759 16.8831 12.7869 17.2554 13.8957L23.7956 33.5171H85.6903L92.2305 13.8957ZM63.1217 20.9489H46.3641C44.0485 20.9489 42.1747 19.0752 42.1747 16.7595C42.1747 14.4439 44.0485 12.5702 46.3641 12.5702H63.1217C65.4373 12.5702 67.3111 14.4439 67.3111 16.7595C67.3111 19.0752 65.4373 20.9489 63.1217 20.9489Z" fill="#B09B7A"/>
<path d="M46.3641 50.2747H63.1217C68.5835 50.2747 73.2433 46.7727 74.974 41.8959H34.5117C36.2422 46.7727 40.9022 50.2747 46.3641 50.2747Z" fill="#B09B7A"/>
<path d="M50.5531 116.821C48.8117 116.205 47.2005 115.246 45.8565 113.902L37.4778 105.523C35.1049 103.151 33.7956 99.992 33.7956 96.6374C33.7956 95.361 33.1574 94.0928 32.1346 93.3236C31.7883 93.0647 31.5383 92.7175 31.2029 92.448H29.6062C18.0373 92.448 8.65918 101.827 8.65918 113.395V143H50.5531V116.821ZM33.7956 125.963H25.4168C23.1011 125.963 21.2274 124.089 21.2274 121.774C21.2274 119.458 23.1011 117.584 25.4168 117.584H33.7956C36.1112 117.584 37.985 119.458 37.985 121.774C37.985 124.089 36.1112 125.963 33.7956 125.963Z" fill="#B09B7A"/>
<path d="M37.154 86.618C40.296 88.9705 42.174 92.7138 42.174 96.6374C42.174 97.7501 42.6158 98.8139 43.4015 99.5993L51.7803 107.978C52.5986 108.796 53.6705 109.206 54.7422 109.206C55.8138 109.206 56.886 108.796 57.7041 107.978L66.0828 99.5993C66.9185 98.7636 67.3148 97.6652 67.2975 96.5706C67.5031 95.7319 67.0894 90.5094 72.2647 86.6708C81.0086 80.1672 85.0876 69.3563 83.6568 58.6532H84.0679C88.6955 58.6532 92.4467 54.902 92.4467 50.2744C92.4467 45.6468 88.6955 41.8956 84.0679 41.8956H83.644C81.6976 51.4449 73.2358 58.6532 63.1209 58.6532H46.3634C36.2485 58.6532 27.7867 51.4449 25.8404 41.8956H25.4164C20.7888 41.8956 17.0376 45.6468 17.0376 50.2744C17.0376 54.902 20.7888 58.6532 25.4164 58.6532H25.7719C24.3015 69.3951 28.5394 80.1755 37.154 86.618Z" fill="#B09B7A"/>
<path d="M87.7507 130.66C85.3778 128.287 84.0685 125.129 84.0685 121.774V96.6377C84.0685 95.3812 84.3098 94.1911 84.6545 93.0457C83.1147 92.6851 81.5289 92.4483 79.8791 92.4483H78.2824C77.947 92.7178 77.6967 93.065 77.3507 93.3239C76.3279 94.0931 75.6897 95.3613 75.6897 96.6377C75.6897 99.9926 74.3804 103.151 72.0075 105.524L63.6287 113.902C62.2848 115.246 60.6732 116.205 58.9321 116.822V143H93.219C92.7495 141.683 92.4473 140.287 92.4473 138.811V135.636L87.7507 130.66Z" fill="#B09B7A"/>
<path d="M109 142.931H117.326C119.641 142.931 121.515 141.057 121.515 138.741V131.818L128.666 124.666C129.452 123.881 129.894 122.817 129.894 121.705V96.5682C129.894 94.2526 128.02 92.3788 125.704 92.3788H121.515V88.1894C121.515 85.8738 119.641 84 117.326 84C115.01 84 113.136 85.8738 113.136 88.1894V92.3788H109V109.136H113.136C115.452 109.136 117.326 111.01 117.326 113.325C117.326 115.641 115.452 117.515 113.136 117.515H109V142.931Z" fill="#B09B7A"/>
<path d="M109.894 142.931H101.568C99.2526 142.931 97.3788 141.057 97.3788 138.741V131.818L90.2275 124.666C89.4418 123.881 89 122.817 89 121.705V96.5682C89 94.2526 90.8738 92.3788 93.1894 92.3788H97.3788V88.1894C97.3788 85.8738 99.2526 84 101.568 84C103.884 84 105.758 85.8738 105.758 88.1894V92.3788H109.894V109.136H105.758C103.442 109.136 101.568 111.01 101.568 113.325C101.568 115.641 103.442 117.515 105.758 117.515H109.894V142.931Z" fill="#B09B7A"/>
</g>
<defs>
<clipPath id="clip0">
<rect width="143" height="143" fill="white"/>
</clipPath>
</defs>
</svg>
