<svg width="143" height="143" viewBox="0 0 143 143" fill="none" xmlns="http://www.w3.org/2000/svg">
<path d="M79.8606 65.9375H93.3378V74.2791H79.8606C77.5455 74.2791 75.6717 76.1557 75.6717 78.468V91.948H67.3301V78.468C67.3301 76.1557 65.4562 74.2791 63.1411 74.2791H49.6611V65.9375H63.1411C65.4562 65.9375 67.3301 64.0636 67.3301 61.7486V48.2686H75.6717V61.7486C75.6717 64.0634 77.5455 65.9375 79.8606 65.9375Z" fill="#303030"/>
<path d="M132.094 38.7848L132.092 38.648C132.025 35.0846 131.96 31.7167 131.96 28.4772C131.96 23.5678 127.967 19.5771 123.06 19.5771C104.07 19.5771 89.6577 14.1622 77.7025 2.53652C74.2229 -0.845345 68.7717 -0.845345 65.2921 2.53652C53.3396 14.1622 38.9269 19.5771 19.9398 19.5771C15.0332 19.5771 11.0398 23.5678 11.0398 28.4772C11.0398 31.7837 10.9755 35.1851 10.9057 38.7876C10.5846 55.5992 10.1852 76.5215 17.2059 95.5142C21.0681 105.959 26.913 115.032 34.5816 122.488C43.3169 130.981 54.7555 137.716 68.5818 142.508C69.5229 142.835 70.5031 143 71.4973 143C72.4915 143 73.4745 142.835 74.4128 142.508C88.2391 137.716 99.6805 130.981 108.416 122.488C116.084 115.032 121.929 105.956 125.792 95.5142C132.815 76.5188 132.416 55.5964 132.094 38.7848ZM101.716 78.4677C101.716 80.78 99.8424 82.6567 97.5274 82.6567H84.0501V96.1367C84.0501 98.449 82.1735 100.326 79.8612 100.326H63.1418C60.8295 100.326 58.9528 98.449 58.9528 96.1367V82.6567H45.4728C43.1577 82.6567 41.2839 80.78 41.2839 78.4677V61.7483C41.2839 59.436 43.1577 57.5593 45.4728 57.5593H58.9528V44.0793C58.9528 41.767 60.8295 39.8904 63.1418 39.8904H79.8612C82.1735 39.8904 84.0501 41.767 84.0501 44.0793V57.5593H97.5274C99.8424 57.5593 101.716 59.436 101.716 61.7483V78.4677Z" fill="#303030"/>
</svg>
