<svg width="372" height="371" viewBox="0 0 372 371" fill="none" xmlns="http://www.w3.org/2000/svg">
<g clip-path="url(#clip0)">
<path d="M188.61 303.501L192.738 360.984L185.757 369.24L178.897 360.62L183.572 303.259L188.61 303.501Z" fill="white" stroke="black" stroke-width="2" stroke-miterlimit="10"/>
<path d="M182.6 69.9874L177.865 10.319L184.361 1.0319L191.402 10.1976L186 69.9874H182.6Z" fill="#CAB28B" stroke="black" stroke-width="2" stroke-miterlimit="10"/>
<path d="M192.313 69.259L191.402 25.7369L197.716 20.3346L202.572 27.9828L196.987 69.9874L192.313 69.259Z" fill="#CAB28B" stroke="black" stroke-width="2" stroke-miterlimit="10"/>
<path d="M203.24 69.9874V31.6248H212.164L216.231 40.0015L206.761 71.4442L203.24 69.9874Z" fill="#CAB28B" stroke="black" stroke-width="2" stroke-miterlimit="10"/>
<path d="M214.289 71.4442V46.3143L216.231 40.0015H224.73L227.401 47.9532L217.263 72.2333L214.289 71.4442Z" fill="#CAB28B" stroke="black" stroke-width="2" stroke-miterlimit="10"/>
<path d="M222.301 74.5399L227.4 47.9532H235.899L239.117 53.4769L225.64 76.543L222.301 74.5399Z" fill="#CAB28B" stroke="black" stroke-width="2" stroke-miterlimit="10"/>
<path d="M230.679 76.543L239.117 54.5695L246.28 53.4769L251.44 58.2116L236.689 78.971L230.679 76.543Z" fill="#CAB28B" stroke="black" stroke-width="2" stroke-miterlimit="10"/>
<path d="M239.117 80.6099L251.44 59.0614L258.299 56.1477L264.491 62.2785L244.155 84.3127L239.117 80.6099Z" fill="#CAB28B" stroke="black" stroke-width="2" stroke-miterlimit="10"/>
<path d="M249.801 87.287L264.491 62.2785L273.901 58.3329L279.91 63.5532L254.293 89.8971L249.801 87.287Z" fill="#CAB28B" stroke="black" stroke-width="2" stroke-miterlimit="10"/>
<path d="M258.785 93.1749L279.91 64.0388L292.78 61.4894V69.5018L261.82 96.3313L258.785 93.1749Z" fill="#CAB28B" stroke="black" stroke-width="2" stroke-miterlimit="10"/>
<path d="M266.373 99.3663L304.496 56.1477L315.241 55.2979L313.905 66.224L269.773 103.13L266.373 99.3663Z" fill="#CAB28B" stroke="black" stroke-width="2" stroke-miterlimit="10"/>
<path d="M273.536 108.532L303.342 78.0605H311.416L308.624 87.6512L276.389 111.931L273.536 108.532Z" fill="#CAB28B" stroke="black" stroke-width="2" stroke-miterlimit="10"/>
<path d="M279.911 116.362L307.653 89.8971L314.391 94.3282L310.202 104.465L280.943 120.794L279.911 116.362Z" fill="#CAB28B" stroke="black" stroke-width="2" stroke-miterlimit="10"/>
<path d="M286.467 125.892L309.17 105.315L316.273 110.05L312.813 118.001L288.227 128.26L286.467 125.892Z" fill="#CAB28B" stroke="black" stroke-width="2" stroke-miterlimit="10"/>
<path d="M290.777 133.48L311.417 119.215L318.883 122.857L316.273 129.959L290.777 136.576V133.48Z" fill="#CAB28B" stroke="black" stroke-width="2" stroke-miterlimit="10"/>
<path d="M294.297 144.163L316.273 131.295L321.433 134.572V144.163L295.39 146.166L294.297 144.163Z" fill="#CAB28B" stroke="black" stroke-width="2" stroke-miterlimit="10"/>
<path d="M296.543 151.629L318.215 144.406L329.628 146.166V154.3L298.911 156L296.543 151.629Z" fill="#CAB28B" stroke="black" stroke-width="2" stroke-miterlimit="10"/>
<path d="M300.671 161.22L327.139 154.421L337.762 158.367V166.562L302.25 166.926L300.671 161.22Z" fill="#CAB28B" stroke="black" stroke-width="2" stroke-miterlimit="10"/>
<path d="M301.764 172.389L337.762 167.958L349.539 172.389L345.108 178.155L301.764 177.123V172.389Z" fill="#CAB28B" stroke="black" stroke-width="2" stroke-miterlimit="10"/>
<path d="M303.646 181.312L362.105 178.155L370.907 184.165L362.226 190.72L303.039 187.2L303.646 181.312Z" fill="#CAB28B" stroke="black" stroke-width="2" stroke-miterlimit="10"/>
<path d="M302.918 192.359L346.504 191.388L351.907 197.761L344.197 202.617L302.25 197.033L302.918 192.359Z" fill="#CAB28B" stroke="black" stroke-width="2" stroke-miterlimit="10"/>
<path d="M302.25 203.285H340.555V212.208L332.177 216.214L300.793 206.806L302.25 203.285Z" fill="#CAB28B" stroke="black" stroke-width="2" stroke-miterlimit="10"/>
<path d="M300.793 214.333H325.925L332.177 216.214V224.712L324.225 227.444L299.943 217.307L300.793 214.333Z" fill="#CAB28B" stroke="black" stroke-width="2" stroke-miterlimit="10"/>
<path d="M297.636 222.284L324.225 227.444V235.942L318.701 239.159L295.633 225.684L297.636 222.284Z" fill="#CAB28B" stroke="black" stroke-width="2" stroke-miterlimit="10"/>
<path d="M295.633 230.722L317.608 239.159L318.701 246.322L313.966 251.421L293.205 236.731L295.633 230.722Z" fill="#CAB28B" stroke="black" stroke-width="2" stroke-miterlimit="10"/>
<path d="M291.566 239.159L313.177 251.42L316.091 258.34L309.959 264.532L287.863 244.136L291.566 239.159Z" fill="#CAB28B" stroke="black" stroke-width="2" stroke-miterlimit="10"/>
<path d="M284.888 249.842L309.959 264.532L313.844 273.94L308.624 279.95L282.278 254.334L284.888 249.842Z" fill="#CAB28B" stroke="black" stroke-width="2" stroke-miterlimit="10"/>
<path d="M279.06 258.826L308.199 279.95L310.688 292.818H302.675L275.904 261.861L279.06 258.826Z" fill="#CAB28B" stroke="black" stroke-width="2" stroke-miterlimit="10"/>
<path d="M272.868 266.353L316.09 304.473L316.879 315.277L305.953 313.942L269.044 269.813L272.868 266.353Z" fill="#CAB28B" stroke="black" stroke-width="2" stroke-miterlimit="10"/>
<path d="M262.002 271.755L293.69 301.62L293.144 309.936L284.221 308.054L258.239 274.608L262.002 271.755Z" fill="#CAB28B" stroke="black" stroke-width="2" stroke-miterlimit="10"/>
<path d="M253.807 279.1L281.185 305.929L274.932 312.303L266.13 309.329L250.286 280.557L253.807 279.1Z" fill="#CAB28B" stroke="black" stroke-width="2" stroke-miterlimit="10"/>
<path d="M245.005 285.959L262.974 303.562L266.13 309.329L260.181 315.399L252.593 311.757L242.334 287.476L245.005 285.959Z" fill="#CAB28B" stroke="black" stroke-width="2" stroke-miterlimit="10"/>
<path d="M237.235 289.48L252.593 311.757L246.644 317.766L240.392 316.248L233.411 290.451L237.235 289.48Z" fill="#CAB28B" stroke="black" stroke-width="2" stroke-miterlimit="10"/>
<path d="M229.89 294.032L239.663 315.459L235.414 321.347L228.433 321.651L223.94 296.642L229.89 294.032Z" fill="#CAB28B" stroke="black" stroke-width="2" stroke-miterlimit="10"/>
<path d="M221.087 297.249L227.886 321.104L225.094 328.024L216.413 328.146L214.956 298.16L221.087 297.249Z" fill="#CAB28B" stroke="black" stroke-width="2" stroke-miterlimit="10"/>
<path d="M208.825 300.102L216.413 328.146L212.589 337.615L204.636 338.222L203.847 301.498L208.825 300.102Z" fill="#CAB28B" stroke="black" stroke-width="2" stroke-miterlimit="10"/>
<path d="M198.383 302.469L204.332 337.918L197.109 348.844L191.402 343.26L193.952 302.409L198.383 302.469Z" fill="#CAB28B" stroke="black" stroke-width="2" stroke-miterlimit="10"/>
<path d="M187.942 301.013L192.677 360.681L186.242 369.968L179.201 360.802L184.603 301.013H187.942Z" fill="#CAB28B" stroke="black" stroke-width="2" stroke-miterlimit="10"/>
<path d="M178.23 301.68L179.201 345.263L172.888 350.665L168.031 342.956L173.616 301.013L178.23 301.68Z" fill="#CAB28B" stroke="black" stroke-width="2" stroke-miterlimit="10"/>
<path d="M167.303 301.013V339.314H158.44L154.373 330.999L163.843 299.556L167.303 301.013Z" fill="#CAB28B" stroke="black" stroke-width="2" stroke-miterlimit="10"/>
<path d="M156.255 299.556V324.686L154.373 330.999H145.874L143.203 323.047L153.28 298.767L156.255 299.556Z" fill="#CAB28B" stroke="black" stroke-width="2" stroke-miterlimit="10"/>
<path d="M148.302 296.46L143.203 323.047H134.704L131.426 317.462L144.963 294.396L148.302 296.46Z" fill="#CAB28B" stroke="black" stroke-width="2" stroke-miterlimit="10"/>
<path d="M139.864 294.396L131.426 316.43L124.323 317.462L119.164 312.788L133.854 291.968L139.864 294.396Z" fill="#CAB28B" stroke="black" stroke-width="2" stroke-miterlimit="10"/>
<path d="M131.426 290.39L119.164 311.939L112.304 314.852L106.112 308.722L126.448 286.687L131.426 290.39Z" fill="#CAB28B" stroke="black" stroke-width="2" stroke-miterlimit="10"/>
<path d="M120.803 283.652L106.112 308.722L96.7028 312.606L90.6323 307.447L116.311 281.103L120.803 283.652Z" fill="#CAB28B" stroke="black" stroke-width="2" stroke-miterlimit="10"/>
<path d="M111.819 277.825L90.6325 306.961L77.8237 309.511V301.498L108.723 274.669L111.819 277.825Z" fill="#CAB28B" stroke="black" stroke-width="2" stroke-miterlimit="10"/>
<path d="M104.23 271.634L66.1077 314.852L55.3022 315.702L56.6378 304.715L100.831 267.87L104.23 271.634Z" fill="#CAB28B" stroke="black" stroke-width="2" stroke-miterlimit="10"/>
<path d="M97.7956 263.014L67.6252 294.457L59.3086 293.789L61.3119 284.927L94.9424 259.251L97.7956 263.014Z" fill="#CAB28B" stroke="black" stroke-width="2" stroke-miterlimit="10"/>
<path d="M90.5108 254.82L63.4364 281.892L57.123 275.579L60.219 266.838L89.1146 251.299L90.5108 254.82Z" fill="#CAB28B" stroke="black" stroke-width="2" stroke-miterlimit="10"/>
<path d="M83.7728 245.957L65.9862 263.743L60.2193 266.838L54.2095 260.829L57.9125 253.302L82.2552 243.287L83.7728 245.957Z" fill="#CAB28B" stroke="black" stroke-width="2" stroke-miterlimit="10"/>
<path d="M80.3123 238.127L57.9121 253.302L51.9023 247.293L53.5414 241.101L79.341 234.303L80.3123 238.127Z" fill="#CAB28B" stroke="black" stroke-width="2" stroke-miterlimit="10"/>
<path d="M75.8205 230.722L54.2702 240.312L48.4425 236.003L48.1997 229.083L73.2709 224.773L75.8205 230.722Z" fill="#CAB28B" stroke="black" stroke-width="2" stroke-miterlimit="10"/>
<path d="M72.6635 221.92L48.7457 228.476L41.8254 225.684L41.7646 216.943L71.8136 215.729L72.6635 221.92Z" fill="#CAB28B" stroke="black" stroke-width="2" stroke-miterlimit="10"/>
<path d="M69.8711 209.659L41.7647 216.943L32.3554 213.058L31.8091 205.106L68.5356 204.621L69.8711 209.659Z" fill="#CAB28B" stroke="black" stroke-width="2" stroke-miterlimit="10"/>
<path d="M67.6859 199.158L32.1128 204.803L21.2466 197.458L26.8921 191.813L67.7466 194.726L67.6859 199.158Z" fill="#CAB28B" stroke="black" stroke-width="2" stroke-miterlimit="10"/>
<path d="M66.7147 189.385L9.16636 193.027L0.971191 185.986L9.652 179.187L66.9575 184.347L66.7147 189.385Z" fill="#CAB28B" stroke="black" stroke-width="2" stroke-miterlimit="10"/>
<path d="M67.7467 178.519L24.1606 179.491L18.7578 173.117L26.4673 168.261L68.4145 173.906L67.7467 178.519Z" fill="#CAB28B" stroke="black" stroke-width="2" stroke-miterlimit="10"/>
<path d="M68.4142 167.593H30.1094V158.731L38.4867 154.664L69.9318 164.134L68.4142 167.593Z" fill="#CAB28B" stroke="black" stroke-width="2" stroke-miterlimit="10"/>
<path d="M69.932 156.546H44.7394L38.4868 154.664V146.166L46.4392 143.495L70.7212 153.572L69.932 156.546Z" fill="#CAB28B" stroke="black" stroke-width="2" stroke-miterlimit="10"/>
<path d="M73.0277 148.594L46.439 143.495V134.997L51.9631 131.72L75.031 145.195L73.0277 148.594Z" fill="#CAB28B" stroke="black" stroke-width="2" stroke-miterlimit="10"/>
<path d="M75.0313 140.157L53.0561 131.72L51.9634 124.557L56.6984 119.458L77.4595 134.148L75.0313 140.157Z" fill="#CAB28B" stroke="black" stroke-width="2" stroke-miterlimit="10"/>
<path d="M79.0985 131.72L57.4876 119.458L54.5737 112.599L60.7049 106.347L82.8015 126.742L79.0985 131.72Z" fill="#CAB28B" stroke="black" stroke-width="2" stroke-miterlimit="10"/>
<path d="M85.7761 121.097L60.7049 106.347L56.8198 96.999L62.0404 90.929L88.3864 116.605L85.7761 121.097Z" fill="#CAB28B" stroke="black" stroke-width="2" stroke-miterlimit="10"/>
<path d="M91.6034 112.113L62.465 90.929L59.9761 78.1212H67.9891L94.76 109.018L91.6034 112.113Z" fill="#CAB28B" stroke="black" stroke-width="2" stroke-miterlimit="10"/>
<path d="M97.8565 104.526L54.5738 66.4061L53.7847 55.6014L64.7116 56.9368L101.62 101.127L97.8565 104.526Z" fill="#CAB28B" stroke="black" stroke-width="2" stroke-miterlimit="10"/>
<path d="M107.69 98.4558L76.1846 68.2878L76.8523 60.0326L85.7153 62.0357L111.454 95.6029L107.69 98.4558Z" fill="#CAB28B" stroke="black" stroke-width="2" stroke-miterlimit="10"/>
<path d="M115.886 91.1718L88.7505 64.0995L95.0638 57.7867L103.866 60.8824L119.406 89.7757L115.886 91.1718Z" fill="#CAB28B" stroke="black" stroke-width="2" stroke-miterlimit="10"/>
<path d="M124.749 84.4341L106.962 66.6489L103.866 60.8824L109.876 54.873L117.403 58.5758L127.42 82.9166L124.749 84.4341Z" fill="#CAB28B" stroke="black" stroke-width="2" stroke-miterlimit="10"/>
<path d="M132.58 80.9741L117.403 58.5757L123.413 52.5664L129.605 54.2053L136.404 80.0636L132.58 80.9741Z" fill="#CAB28B" stroke="black" stroke-width="2" stroke-miterlimit="10"/>
<path d="M139.985 76.4823L130.394 54.9337L134.643 49.1065L141.624 48.8637L145.935 73.9329L139.985 76.4823Z" fill="#CAB28B" stroke="black" stroke-width="2" stroke-miterlimit="10"/>
<path d="M148.788 73.3866L142.171 49.41L145.024 42.4902L153.766 42.4295L154.919 72.4761L148.788 73.3866Z" fill="#CAB28B" stroke="black" stroke-width="2" stroke-miterlimit="10"/>
<path d="M161.05 70.5337L153.766 42.4295L157.59 33.0209L165.542 32.4746L166.089 69.1983L161.05 70.5337Z" fill="#CAB28B" stroke="black" stroke-width="2" stroke-miterlimit="10"/>
<path d="M171.552 68.3485L165.907 32.7781L173.191 21.9128L178.837 27.5579L175.923 68.4092L171.552 68.3485Z" fill="#CAB28B" stroke="black" stroke-width="2" stroke-miterlimit="10"/>
<path d="M185.879 305.383C251.657 305.383 304.982 251.519 304.982 185.075C304.982 118.631 251.657 64.7672 185.879 64.7672C120.1 64.7672 66.7754 118.631 66.7754 185.075C66.7754 251.519 120.1 305.383 185.879 305.383Z" fill="white" stroke="black" stroke-width="2" stroke-miterlimit="10"/>
<path d="M279.548 146.538L279.551 146.544C284.335 158.444 286.909 171.426 286.909 185.075C286.909 198.72 284.276 211.704 279.548 223.612C264.526 261.253 228.27 287.797 185.878 287.797C143.485 287.797 107.17 261.252 92.2085 223.613C87.4808 211.704 84.8477 198.72 84.8477 185.075C84.8477 171.431 87.4806 158.447 92.208 146.539C107.23 108.898 143.547 82.3527 185.878 82.3527C228.212 82.3527 264.587 108.899 279.548 146.538Z" fill="white" stroke="#FF0000" stroke-width="3" stroke-miterlimit="10"/>
<path d="M283.431 185.075C283.431 197.944 280.942 210.266 276.39 221.495C262.002 257.066 227.097 282.196 186.364 282.196C145.631 282.196 110.726 257.066 96.3386 221.495C91.7858 210.266 89.2969 197.944 89.2969 185.075C89.2969 172.207 91.7858 159.884 96.3386 148.655C110.726 113.085 145.631 87.9547 186.364 87.9547C227.097 87.9547 262.002 113.085 276.39 148.655C280.882 159.884 283.431 172.207 283.431 185.075Z" fill="white"/>
<path fill-rule="evenodd" clip-rule="evenodd" d="M90.4302 200C91.5788 207.485 93.5797 214.691 96.3385 221.495C110.726 257.066 145.631 282.196 186.364 282.196C227.097 282.196 262.002 257.066 276.389 221.495C279.148 214.691 281.149 207.485 282.298 200H90.4302Z" fill="#FF0000"/>
<path d="M96.0962 220.888C91.4826 209.477 89.1758 197.458 89.1758 185.075C89.1758 172.692 91.4826 160.674 96.0962 149.262H276.754C281.368 160.674 283.674 172.692 283.674 185.075C283.674 197.458 281.368 209.477 276.754 220.888H96.0962Z" fill="#1768B0"/>
<path d="M177.501 127.167C176.955 126.439 177.076 125.346 177.805 124.8L192.07 113.995C192.799 113.449 193.891 113.57 194.438 114.299C194.984 115.027 194.863 116.12 194.134 116.666L179.869 127.471C179.14 128.078 178.047 127.956 177.501 127.167Z" fill="#CAB28B" stroke="black" stroke-width="2" stroke-miterlimit="10"/>
<path d="M194.984 259.19C195.652 262.468 196.259 267.506 195.167 273.515C193.467 283.045 188.489 289.419 186 292.211C183.511 289.419 178.533 283.045 176.834 273.515C175.741 267.567 176.348 262.468 177.016 259.19" fill="#CAB28B"/>
<path d="M194.984 259.19C195.652 262.468 196.259 267.506 195.167 273.515C193.467 283.045 188.489 289.419 186 292.211C183.511 289.419 178.533 283.045 176.834 273.515C175.741 267.567 176.348 262.468 177.016 259.19" stroke="black" stroke-width="2" stroke-miterlimit="10"/>
<path d="M186 270.48C176.287 264.896 167.546 258.037 159.958 249.903C146.845 235.881 140.714 221.92 137.436 214.393C133.248 204.742 126.145 184.772 125.72 159.156C125.659 156.182 125.72 153.147 125.842 150.172C129.848 150.172 133.733 149.505 137.315 148.109C150.548 143.192 156.558 131.234 158.683 125.65L185.939 125.346L213.196 125.65C215.321 131.173 221.33 143.192 234.564 148.109C238.206 149.444 242.092 150.172 246.037 150.172C246.159 153.147 246.219 156.182 246.159 159.156C245.734 184.772 238.631 204.742 234.443 214.393C231.165 221.92 225.094 235.881 211.921 249.903C204.454 257.976 195.713 264.896 186 270.48Z" fill="white"/>
<path d="M186 126.378L195.227 126.499L212.589 126.681C214.956 132.569 221.148 144.163 234.26 149.08C237.721 150.355 241.424 151.083 245.187 151.144C245.309 153.814 245.309 156.485 245.309 159.217C244.884 184.65 237.842 204.499 233.653 214.09C230.193 222.102 224.366 235.456 211.314 249.296C203.908 257.187 195.349 263.985 185.939 269.448C176.469 263.985 167.971 257.187 160.565 249.296C147.574 235.396 141.746 222.042 138.225 214.09C134.037 204.499 126.995 184.65 126.57 159.217C126.509 156.546 126.57 153.814 126.691 151.144C130.516 151.022 134.158 150.355 137.618 149.08C150.73 144.224 156.922 132.569 159.29 126.681L176.651 126.499L186 126.378ZM186 124.557C176.712 124.678 167.424 124.739 158.136 124.86C157.044 127.774 151.52 141.978 137.072 147.32C132.883 148.898 128.937 149.323 125.841 149.323C125.599 149.323 125.295 149.323 125.052 149.323C124.931 151.69 124.809 155.089 124.87 159.217C125.295 187.564 133.976 208.627 136.647 214.818C140.35 223.256 146.36 236.731 159.29 250.571C168.942 260.89 178.837 267.506 185.879 271.452H186.121C193.163 267.445 202.997 260.89 212.71 250.571C225.701 236.731 231.711 223.256 235.353 214.818C238.024 208.687 246.705 187.624 247.13 159.217C247.191 155.089 247.069 151.69 246.948 149.323C246.705 149.323 246.401 149.323 246.159 149.323C243.002 149.323 239.117 148.898 234.928 147.32C220.48 141.978 214.956 127.713 213.864 124.86C204.576 124.739 195.288 124.678 186 124.557Z" fill="black"/>
<path d="M186 141.857H186.486L206.033 142.099C207.914 146.834 212.71 155.818 222.726 159.642C225.276 160.613 228.008 161.159 230.8 161.281C230.861 163.223 230.922 165.226 230.861 167.229C230.557 187.139 225.215 202.678 221.998 210.144C219.327 216.396 214.895 226.837 205.061 237.642C199.476 243.712 193.102 248.992 186 253.181C178.897 248.932 172.523 243.712 166.939 237.642C157.044 226.776 152.612 216.336 150.002 210.144C146.845 202.678 141.442 187.139 141.139 167.229C141.139 165.287 141.139 163.284 141.2 161.281C143.992 161.159 146.724 160.613 149.273 159.642C159.229 155.818 164.025 146.834 165.967 142.099L185.757 141.857H186ZM186 140.036C178.897 140.096 171.795 140.218 164.753 140.278C163.964 142.524 159.715 153.693 148.666 157.881C145.449 159.095 142.474 159.46 140.046 159.46C139.864 159.46 139.621 159.46 139.439 159.46C139.318 161.341 139.257 164.012 139.318 167.229C139.682 189.446 146.238 205.956 148.302 210.812C151.095 217.428 155.708 227.99 165.603 238.856C173.009 246.929 180.536 252.088 185.878 255.245H186.061C191.463 252.088 198.93 246.929 206.336 238.856C216.231 227.99 220.845 217.428 223.637 210.812C225.701 205.956 232.257 189.446 232.621 167.229C232.682 164.012 232.561 161.341 232.5 159.46C232.318 159.46 232.075 159.46 231.893 159.46C229.465 159.46 226.49 159.095 223.273 157.881C212.285 153.693 208.036 142.524 207.186 140.278C200.205 140.218 193.102 140.157 186 140.036Z" fill="black"/>
<path d="M186 150.415C205.001 150.415 220.42 165.833 220.42 184.832C220.42 203.831 205.001 219.249 186 219.249C166.999 219.249 151.58 203.831 151.58 184.832C151.58 165.833 166.999 150.415 186 150.415ZM186 148.594C165.967 148.594 149.759 164.801 149.759 184.832C149.759 204.863 165.967 221.07 186 221.07C206.033 221.07 222.241 204.863 222.241 184.832C222.241 164.801 206.033 148.594 186 148.594Z" fill="black"/>
<path d="M165.057 135.726C166.264 135.726 167.242 134.747 167.242 133.541C167.242 132.334 166.264 131.355 165.057 131.355C163.85 131.355 162.872 132.334 162.872 133.541C162.872 134.747 163.85 135.726 165.057 135.726Z" fill="black"/>
<path d="M206.518 135.665C207.725 135.665 208.704 134.687 208.704 133.48C208.704 132.273 207.725 131.295 206.518 131.295C205.311 131.295 204.333 132.273 204.333 133.48C204.333 134.687 205.311 135.665 206.518 135.665Z" fill="black"/>
<path d="M134.765 159.035C135.972 159.035 136.95 158.056 136.95 156.849C136.95 155.643 135.972 154.664 134.765 154.664C133.558 154.664 132.58 155.643 132.58 156.849C132.58 158.056 133.558 159.035 134.765 159.035Z" fill="black"/>
<path d="M186.304 263.014C187.511 263.014 188.489 262.036 188.489 260.829C188.489 259.622 187.511 258.644 186.304 258.644C185.097 258.644 184.118 259.622 184.118 260.829C184.118 262.036 185.097 263.014 186.304 263.014Z" fill="black"/>
<path d="M228.736 214.333C229.943 214.333 230.922 213.354 230.922 212.147C230.922 210.941 229.943 209.962 228.736 209.962C227.529 209.962 226.551 210.941 226.551 212.147C226.551 213.354 227.529 214.333 228.736 214.333Z" fill="black"/>
<path d="M142.839 214.333C144.046 214.333 145.024 213.354 145.024 212.147C145.024 210.941 144.046 209.962 142.839 209.962C141.632 209.962 140.653 210.941 140.653 212.147C140.653 213.354 141.632 214.333 142.839 214.333Z" fill="black"/>
<path d="M237.903 159.035C239.11 159.035 240.088 158.056 240.088 156.849C240.088 155.643 239.11 154.664 237.903 154.664C236.696 154.664 235.717 155.643 235.717 156.849C235.717 158.056 236.696 159.035 237.903 159.035Z" fill="black"/>
<path d="M177.501 96.3313C176.955 95.6029 177.076 94.5103 177.805 93.964L192.07 83.1594C192.799 82.6131 193.891 82.7345 194.438 83.4629C194.984 84.1913 194.863 85.2839 194.134 85.8302L179.869 96.6348C179.14 97.2418 178.047 97.0597 177.501 96.3313Z" fill="#CAB28B" stroke="black" stroke-width="2" stroke-miterlimit="10"/>
<path d="M194.802 80.4885C194.681 80.8527 194.499 81.2169 194.195 81.4597L184.664 88.6224L179.869 92.2644C179.14 92.8107 178.047 92.6893 177.501 91.9609C176.955 91.2325 177.076 90.1399 177.805 89.5936L179.019 88.6831L190.431 80.0636H192.738C193.527 80.0029 194.195 80.185 194.802 80.4885Z" fill="#CAB28B" stroke="black" stroke-width="2" stroke-miterlimit="10"/>
<path d="M177.501 100.762C176.955 100.034 177.076 98.9414 177.805 98.3951L192.07 87.5905C192.799 87.0442 193.891 87.1656 194.438 87.894C194.984 88.6224 194.863 89.715 194.134 90.2613L179.869 101.066C179.14 101.612 178.047 101.491 177.501 100.762Z" fill="#CAB28B" stroke="black" stroke-width="2" stroke-miterlimit="10"/>
<path d="M177.501 105.133C176.955 104.404 177.076 103.312 177.805 102.766L192.07 91.9609C192.799 91.4146 193.891 91.536 194.438 92.2644C194.984 92.9928 194.863 94.0854 194.134 94.6317L179.869 105.436C179.14 106.043 178.047 105.922 177.501 105.133Z" fill="#CAB28B" stroke="black" stroke-width="2" stroke-miterlimit="10"/>
<path d="M177.501 109.564C176.955 108.836 177.076 107.743 177.805 107.197L192.07 96.392C192.799 95.8457 193.891 95.9671 194.438 96.6955C194.984 97.4239 194.863 98.5165 194.134 99.0628L179.869 109.867C179.14 110.474 178.047 110.292 177.501 109.564Z" fill="#CAB28B" stroke="black" stroke-width="2" stroke-miterlimit="10"/>
<path d="M177.501 113.995C176.955 113.267 177.076 112.174 177.805 111.628L192.07 100.823C192.799 100.277 193.891 100.398 194.438 101.127C194.984 101.855 194.863 102.948 194.134 103.494L179.869 114.299C179.14 114.845 178.047 114.724 177.501 113.995Z" fill="#CAB28B" stroke="black" stroke-width="2" stroke-miterlimit="10"/>
<path d="M177.501 118.366C176.955 117.637 177.076 116.545 177.805 115.998L192.07 105.194C192.799 104.647 193.891 104.769 194.438 105.497C194.984 106.225 194.863 107.318 194.134 107.864L179.869 118.669C179.14 119.276 178.047 119.094 177.501 118.366Z" fill="#CAB28B" stroke="black" stroke-width="2" stroke-miterlimit="10"/>
<path d="M177.501 122.797C176.955 122.068 177.076 120.976 177.805 120.429L192.07 109.625C192.799 109.078 193.891 109.2 194.438 109.928C194.984 110.657 194.863 111.749 194.134 112.295L179.869 123.1C179.14 123.646 178.047 123.525 177.501 122.797Z" fill="#CAB28B" stroke="black" stroke-width="2" stroke-miterlimit="10"/>
<path d="M172.402 121.036C171.673 121.218 171.066 121.704 170.581 122.25C170.217 122.736 169.549 123.343 168.638 123.707C168.335 123.829 166.817 124.496 165.057 123.95C163.114 123.343 161.293 121.522 161.232 119.155C161.111 116.302 163.66 114.663 163.903 114.481C165.603 113.449 167.363 113.631 168.638 113.752C171.795 114.116 172.948 115.452 175.801 116.727C179.99 118.608 183.875 118.608 185.939 118.548C187.639 118.548 191.524 118.487 195.834 116.727C197.412 116.059 198.869 115.27 201.54 114.541C204.94 113.631 206.215 113.995 206.7 114.116C207.125 114.238 209.735 115.088 210.585 117.698C211.192 119.519 210.767 121.704 209.311 123.1C207.55 124.678 205.183 124.314 205.061 124.253C202.329 123.768 201.844 121.218 199.719 121.218C198.323 121.218 197.716 122.311 196.016 123.525C192.495 126.014 188.428 125.892 186.485 125.832C185.332 125.771 178.837 125.467 176.044 122.432C175.741 122.068 174.952 121.097 173.677 120.976C173.13 120.915 172.766 120.915 172.402 121.036Z" fill="#CAB28B" stroke="black" stroke-width="2" stroke-miterlimit="10"/>
<path d="M197.109 84.3127C197.109 85.5267 196.623 86.5586 195.834 87.3477C195.045 88.1368 193.952 88.6224 192.799 88.6224H179.201C179.14 88.6224 179.14 88.6224 179.08 88.6224C176.773 88.5617 174.891 86.6193 174.891 84.3127C174.891 83.0987 175.377 82.0668 176.166 81.2777C176.955 80.4885 178.048 80.003 179.201 80.003H192.799C193.528 80.003 194.195 80.1851 194.802 80.4886C196.199 81.217 197.109 82.6738 197.109 84.3127Z" fill="#CAB28B" stroke="black" stroke-width="2" stroke-miterlimit="10"/>
<path d="M162.932 203.164C162.689 204.256 162.993 205.592 163.904 206.381C164.389 206.867 165.421 207.413 166.089 207.049C167.121 206.502 166.453 203.953 166.089 200.736C166.089 200.736 165.725 197.701 165.968 191.995C166.15 186.107 170.824 181.615 176.773 175.97C184.968 168.14 190.796 167.411 194.985 164.255C195.713 163.709 197.049 162.616 198.505 162.92C199.112 163.041 199.659 163.466 200.144 163.162C200.509 162.98 201.055 161.888 201.298 161.402C201.419 161.159 200.509 161.038 200.691 160.916C202.573 159.824 205.244 160.916 206.701 161.463C207.308 161.645 207.733 162.252 207.975 162.434C208.704 163.102 208.279 163.951 209.311 165.226C209.857 165.894 210.464 166.926 209.068 167.533C208.158 167.958 207.915 167.776 206.64 166.744C206.397 166.562 206.033 167.229 206.033 167.169C206.397 167.533 206.883 167.897 207.126 167.897C207.672 167.897 207.186 168.443 207.126 168.504C207.004 168.747 205.972 168.018 204.455 167.897C203.787 167.836 203.18 167.836 202.512 168.079C201.176 168.625 201.298 169.9 199.902 171.235C198.87 172.207 198.505 171.903 197.716 172.571C195.956 174.21 195.713 178.155 197.595 180.826C198.688 182.404 200.63 183.679 202.633 183.8C202.937 183.8 203.18 183.8 203.362 183.8C203.483 184.104 203.908 184.893 203.544 185.5C203.119 186.289 201.905 186.289 200.994 186.289C199.112 186.35 197.716 185.743 197.352 185.561C194.863 184.407 193.528 182.465 192.921 181.494C192.374 180.705 191.706 179.43 191.221 177.67C190.917 179.126 190.189 181.797 187.821 183.74C187.457 184.043 187.032 184.347 186.668 184.529C186.547 184.772 185.879 186.653 186.911 188.353C187.518 189.324 188.428 189.81 188.793 189.992C188.975 190.417 189.218 191.206 188.914 191.57C188.428 192.116 186.729 191.449 185.818 190.72C183.572 188.839 184.179 185.014 184.24 184.407C182.722 185.561 181.205 186.714 179.748 187.867C179.687 187.989 178.776 190.295 179.99 191.752C180.597 192.42 181.387 192.723 181.812 192.845C182.965 193.209 183.936 193.027 184.422 192.905C184.847 194.059 184.543 194.544 184.422 194.726C183.572 195.819 180.658 194.726 179.808 194.484C178.898 194.18 178.23 193.816 177.805 193.512C176.773 196.365 175.377 197.822 174.223 198.672C173.374 199.279 172.038 200.007 170.52 201.646C169.731 202.496 169.306 203.164 169.306 204.014C169.306 204.074 169.367 205.228 170.156 205.895C170.824 206.442 171.431 206.199 171.856 206.745C172.159 207.17 172.281 207.838 171.977 208.263C171.552 208.93 170.399 208.748 169.731 208.505C169.064 208.202 168.699 207.716 168.456 207.352C168.335 207.231 167.667 206.199 167.607 204.863C167.546 202.8 169.064 202.01 169.792 200.068C170.217 198.854 170.399 197.033 169.306 194.362C169.124 195.698 168.881 197.761 168.699 200.25C168.274 205.349 168.517 207.352 167.06 208.445C166.089 209.173 164.632 209.234 163.6 208.688C162.447 208.08 162.082 206.867 161.779 205.592C161.718 205.288 161.415 204.256 161.718 203.103C161.84 202.739 161.961 202.435 162.265 202.253C162.568 202.071 163.054 201.95 163.236 202.193C163.297 202.193 163.054 202.617 162.932 203.164Z" fill="#020304"/>
</g>
<defs>
<clipPath id="clip0">
<rect width="372" height="371" fill="white"/>
</clipPath>
</defs>
</svg>
