<svg width="217" height="217" viewBox="0 0 217 217" fill="none" xmlns="http://www.w3.org/2000/svg">
<path d="M110.053 176.79L112.452 210.198L108.394 214.996L104.408 209.986L107.124 176.649L110.053 176.79Z" fill="white" stroke="black" stroke-miterlimit="10"/>
<path d="M106.56 41.0757L103.808 6.39752L107.583 1L111.675 6.32696L108.535 41.0757H106.56Z" fill="#CAB28B" stroke="black" stroke-miterlimit="10"/>
<path d="M112.205 40.6523L111.675 15.3581L115.344 12.2184L118.167 16.6634L114.921 41.0757L112.205 40.6523Z" fill="#CAB28B" stroke="black" stroke-miterlimit="10"/>
<path d="M118.555 41.0757V18.7801H123.741L126.105 23.6484L120.601 41.9223L118.555 41.0757Z" fill="#CAB28B" stroke="black" stroke-miterlimit="10"/>
<path d="M124.976 41.9223V27.3173L126.105 23.6484H131.044L132.597 28.2698L126.705 42.381L124.976 41.9223Z" fill="#CAB28B" stroke="black" stroke-miterlimit="10"/>
<path d="M129.633 43.7215L132.596 28.2698H137.536L139.406 31.4801L131.573 44.8857L129.633 43.7215Z" fill="#CAB28B" stroke="black" stroke-miterlimit="10"/>
<path d="M134.502 44.8857L139.406 32.1151L143.569 31.4801L146.568 34.2318L137.995 46.2968L134.502 44.8857Z" fill="#CAB28B" stroke="black" stroke-miterlimit="10"/>
<path d="M139.406 47.2493L146.568 34.7257L150.554 33.0323L154.153 36.5954L142.334 49.4012L139.406 47.2493Z" fill="#CAB28B" stroke="black" stroke-miterlimit="10"/>
<path d="M145.615 51.1299L154.153 36.5954L159.622 34.3023L163.114 37.3362L148.226 52.6468L145.615 51.1299Z" fill="#CAB28B" stroke="black" stroke-miterlimit="10"/>
<path d="M150.836 54.5518L163.114 37.6184L170.594 36.1368V40.7934L152.6 56.3863L150.836 54.5518Z" fill="#CAB28B" stroke="black" stroke-miterlimit="10"/>
<path d="M155.247 58.1502L177.403 33.0323L183.648 32.5384L182.872 38.8885L157.223 60.3374L155.247 58.1502Z" fill="#CAB28B" stroke="black" stroke-miterlimit="10"/>
<path d="M159.41 63.4771L176.732 45.7676H181.425L179.802 51.3415L161.068 65.4527L159.41 63.4771Z" fill="#CAB28B" stroke="black" stroke-miterlimit="10"/>
<path d="M163.115 68.028L179.238 52.6468L183.154 55.2221L180.72 61.1135L163.715 70.6033L163.115 68.028Z" fill="#CAB28B" stroke="black" stroke-miterlimit="10"/>
<path d="M166.925 73.5666L180.12 61.6074L184.248 64.3591L182.237 68.9805L167.948 74.9424L166.925 73.5666Z" fill="#CAB28B" stroke="black" stroke-miterlimit="10"/>
<path d="M169.43 77.9763L181.425 69.686L185.765 71.8027L184.248 75.9302L169.43 79.7755V77.9763Z" fill="#CAB28B" stroke="black" stroke-miterlimit="10"/>
<path d="M171.476 84.1852L184.247 76.7063L187.246 78.6113V84.1852L172.111 85.3494L171.476 84.1852Z" fill="#CAB28B" stroke="black" stroke-miterlimit="10"/>
<path d="M172.781 88.5244L185.376 84.3263L192.009 85.3494V90.0766L174.157 91.0644L172.781 88.5244Z" fill="#CAB28B" stroke="black" stroke-miterlimit="10"/>
<path d="M175.18 94.0983L190.563 90.1472L196.737 92.4403V97.2028L176.097 97.4144L175.18 94.0983Z" fill="#CAB28B" stroke="black" stroke-miterlimit="10"/>
<path d="M175.815 100.589L196.736 98.0142L203.581 100.589L201.005 103.941L175.815 103.341V100.589Z" fill="#CAB28B" stroke="black" stroke-miterlimit="10"/>
<path d="M176.909 105.775L210.884 103.941L216 107.433L210.955 111.243L176.556 109.197L176.909 105.775Z" fill="#CAB28B" stroke="black" stroke-miterlimit="10"/>
<path d="M176.486 112.196L201.817 111.631L204.957 115.336L200.477 118.158L176.098 114.912L176.486 112.196Z" fill="#CAB28B" stroke="black" stroke-miterlimit="10"/>
<path d="M176.098 118.546H198.36V123.732L193.491 126.06L175.251 120.592L176.098 118.546Z" fill="#CAB28B" stroke="black" stroke-miterlimit="10"/>
<path d="M175.251 124.966H189.857L193.491 126.06V130.999L188.87 132.587L174.757 126.695L175.251 124.966Z" fill="#CAB28B" stroke="black" stroke-miterlimit="10"/>
<path d="M173.416 129.588L188.869 132.586V137.525L185.659 139.395L172.252 131.563L173.416 129.588Z" fill="#CAB28B" stroke="black" stroke-miterlimit="10"/>
<path d="M172.252 134.492L185.024 139.395L185.659 143.558L182.907 146.521L170.841 137.984L172.252 134.492Z" fill="#CAB28B" stroke="black" stroke-miterlimit="10"/>
<path d="M169.888 139.395L182.448 146.521L184.142 150.543L180.578 154.141L167.736 142.288L169.888 139.395Z" fill="#CAB28B" stroke="black" stroke-miterlimit="10"/>
<path d="M166.007 145.604L180.578 154.141L182.836 159.609L179.802 163.102L164.49 148.215L166.007 145.604Z" fill="#CAB28B" stroke="black" stroke-miterlimit="10"/>
<path d="M162.62 150.825L179.555 163.102L181.001 170.581H176.344L160.786 152.589L162.62 150.825Z" fill="#CAB28B" stroke="black" stroke-miterlimit="10"/>
<path d="M159.022 155.2L184.141 177.354L184.6 183.634L178.249 182.857L156.799 157.21L159.022 155.2Z" fill="#CAB28B" stroke="black" stroke-miterlimit="10"/>
<path d="M152.706 158.339L171.123 175.696L170.805 180.529L165.619 179.436L150.519 159.997L152.706 158.339Z" fill="#CAB28B" stroke="black" stroke-miterlimit="10"/>
<path d="M147.943 162.608L163.855 178.201L160.221 181.905L155.105 180.176L145.897 163.455L147.943 162.608Z" fill="#CAB28B" stroke="black" stroke-miterlimit="10"/>
<path d="M142.828 166.594L153.271 176.825L155.105 180.176L151.648 183.704L147.238 181.587L141.275 167.476L142.828 166.594Z" fill="#CAB28B" stroke="black" stroke-miterlimit="10"/>
<path d="M138.312 168.64L147.238 181.587L143.781 185.08L140.147 184.198L136.089 169.205L138.312 168.64Z" fill="#CAB28B" stroke="black" stroke-miterlimit="10"/>
<path d="M134.043 171.286L139.724 183.739L137.254 187.161L133.197 187.338L130.586 172.803L134.043 171.286Z" fill="#CAB28B" stroke="black" stroke-miterlimit="10"/>
<path d="M128.927 173.156L132.879 187.02L131.256 191.042L126.211 191.113L125.364 173.685L128.927 173.156Z" fill="#CAB28B" stroke="black" stroke-miterlimit="10"/>
<path d="M121.801 174.814L126.211 191.112L123.989 196.616L119.367 196.969L118.908 175.625L121.801 174.814Z" fill="#CAB28B" stroke="black" stroke-miterlimit="10"/>
<path d="M115.733 176.19L119.19 196.792L114.992 203.142L111.675 199.897L113.157 176.155L115.733 176.19Z" fill="#CAB28B" stroke="black" stroke-miterlimit="10"/>
<path d="M109.664 175.343L112.416 210.021L108.677 215.419L104.584 210.092L107.724 175.343H109.664Z" fill="#CAB28B" stroke="black" stroke-miterlimit="10"/>
<path d="M104.019 175.731L104.584 201.061L100.915 204.201L98.0923 199.72L101.338 175.343L104.019 175.731Z" fill="#CAB28B" stroke="black" stroke-miterlimit="10"/>
<path d="M97.6691 175.343V197.604H92.5181L90.1543 192.771L95.6581 174.497L97.6691 175.343Z" fill="#CAB28B" stroke="black" stroke-miterlimit="10"/>
<path d="M91.2479 174.497V189.102L90.1542 192.771H85.2149L83.6626 188.149L89.5192 174.038L91.2479 174.497Z" fill="#CAB28B" stroke="black" stroke-miterlimit="10"/>
<path d="M86.6259 172.697L83.6623 188.149H78.723L76.8179 184.904L84.6854 171.498L86.6259 172.697Z" fill="#CAB28B" stroke="black" stroke-miterlimit="10"/>
<path d="M81.7216 171.498L76.8176 184.304L72.6898 184.904L69.6909 182.187L78.2288 170.087L81.7216 171.498Z" fill="#CAB28B" stroke="black" stroke-miterlimit="10"/>
<path d="M76.818 169.17L69.6913 181.693L65.7046 183.387L62.106 179.824L73.925 167.018L76.818 169.17Z" fill="#CAB28B" stroke="black" stroke-miterlimit="10"/>
<path d="M70.6438 165.254L62.1059 179.824L56.6374 182.081L53.1094 179.083L68.0331 163.772L70.6438 165.254Z" fill="#CAB28B" stroke="black" stroke-miterlimit="10"/>
<path d="M65.4227 161.867L53.1097 178.801L45.6655 180.282V175.625L63.6234 160.033L65.4227 161.867Z" fill="#CAB28B" stroke="black" stroke-miterlimit="10"/>
<path d="M61.0124 158.269L38.8561 183.387L32.5762 183.881L33.3523 177.495L59.0366 156.082L61.0124 158.269Z" fill="#CAB28B" stroke="black" stroke-miterlimit="10"/>
<path d="M57.2727 153.259L39.7382 171.533L34.9048 171.145L36.069 165.995L55.6145 151.072L57.2727 153.259Z" fill="#CAB28B" stroke="black" stroke-miterlimit="10"/>
<path d="M53.0386 148.497L37.3035 164.231L33.6343 160.562L35.4336 155.482L52.2272 146.451L53.0386 148.497Z" fill="#CAB28B" stroke="black" stroke-miterlimit="10"/>
<path d="M49.1226 143.346L38.7854 153.683L35.4337 155.482L31.9409 151.989L34.093 147.615L48.2406 141.794L49.1226 143.346Z" fill="#CAB28B" stroke="black" stroke-miterlimit="10"/>
<path d="M47.1114 138.795L34.0929 147.615L30.6001 144.122L31.5527 140.524L46.5469 136.573L47.1114 138.795Z" fill="#CAB28B" stroke="black" stroke-miterlimit="10"/>
<path d="M44.5009 134.491L31.9763 140.065L28.5894 137.561L28.4482 133.539L43.0191 131.034L44.5009 134.491Z" fill="#CAB28B" stroke="black" stroke-miterlimit="10"/>
<path d="M42.6658 129.376L28.7653 133.186L24.7433 131.563L24.708 126.483L42.1719 125.778L42.6658 129.376Z" fill="#CAB28B" stroke="black" stroke-miterlimit="10"/>
<path d="M41.0433 122.25L24.7084 126.483L19.2399 124.226L18.9224 119.604L40.2671 119.322L41.0433 122.25Z" fill="#CAB28B" stroke="black" stroke-miterlimit="10"/>
<path d="M39.7734 116.147L19.0989 119.428L12.7837 115.159L16.0648 111.878L39.8086 113.572L39.7734 116.147Z" fill="#CAB28B" stroke="black" stroke-miterlimit="10"/>
<path d="M39.2089 110.467L5.76288 112.584L1 108.492L6.04513 104.541L39.35 107.539L39.2089 110.467Z" fill="#CAB28B" stroke="black" stroke-miterlimit="10"/>
<path d="M39.8089 104.153L14.4774 104.717L11.3374 101.013L15.818 98.1906L40.1969 101.471L39.8089 104.153Z" fill="#CAB28B" stroke="black" stroke-miterlimit="10"/>
<path d="M40.1966 97.8025H17.9346V92.6519L22.8033 90.2883L41.0786 95.7917L40.1966 97.8025Z" fill="#CAB28B" stroke="black" stroke-miterlimit="10"/>
<path d="M41.0786 91.3819H26.4371L22.8032 90.2883V85.3494L27.425 83.7972L41.5372 89.6533L41.0786 91.3819Z" fill="#CAB28B" stroke="black" stroke-miterlimit="10"/>
<path d="M42.8777 86.7605L27.4248 83.7972V78.8583L30.6353 76.9533L44.042 84.785L42.8777 86.7605Z" fill="#CAB28B" stroke="black" stroke-miterlimit="10"/>
<path d="M44.0424 81.8569L31.2708 76.9533L30.6357 72.7905L33.3876 69.8271L45.4536 78.3644L44.0424 81.8569Z" fill="#CAB28B" stroke="black" stroke-miterlimit="10"/>
<path d="M46.4062 76.9533L33.8463 69.8271L32.1528 65.8407L35.7162 62.2071L48.5583 74.0605L46.4062 76.9533Z" fill="#CAB28B" stroke="black" stroke-miterlimit="10"/>
<path d="M50.2873 70.7796L35.7165 62.2071L33.4585 56.7743L36.4926 53.2465L51.8044 68.1691L50.2873 70.7796Z" fill="#CAB28B" stroke="black" stroke-miterlimit="10"/>
<path d="M53.6737 65.5585L36.739 53.2465L35.2925 45.8029H39.9495L55.5083 63.7593L53.6737 65.5585Z" fill="#CAB28B" stroke="black" stroke-miterlimit="10"/>
<path d="M57.3081 61.1488L32.153 38.9943L31.6943 32.7148L38.0448 33.4909L59.4955 59.1732L57.3081 61.1488Z" fill="#CAB28B" stroke="black" stroke-miterlimit="10"/>
<path d="M63.023 57.621L44.7124 40.0879L45.1005 35.2901L50.2515 36.4543L65.2104 55.9629L63.023 57.621Z" fill="#CAB28B" stroke="black" stroke-miterlimit="10"/>
<path d="M67.7861 53.3877L52.0156 37.6537L55.6848 33.9848L60.8005 35.784L69.8323 52.5763L67.7861 53.3877Z" fill="#CAB28B" stroke="black" stroke-miterlimit="10"/>
<path d="M72.9368 49.4718L62.5996 39.1354L60.8003 35.784L64.2931 32.2915L68.6679 34.4434L74.4892 48.5899L72.9368 49.4718Z" fill="#CAB28B" stroke="black" stroke-miterlimit="10"/>
<path d="M77.4881 47.461L68.668 34.4434L72.1608 30.9509L75.7594 31.9034L79.7108 46.9318L77.4881 47.461Z" fill="#CAB28B" stroke="black" stroke-miterlimit="10"/>
<path d="M81.7926 44.8504L76.2183 32.3268L78.6879 28.9401L82.7452 28.799L85.2501 43.3687L81.7926 44.8504Z" fill="#CAB28B" stroke="black" stroke-miterlimit="10"/>
<path d="M86.9081 43.0512L83.0625 29.1165L84.7207 25.0948L89.8011 25.0595L90.4714 42.5221L86.9081 43.0512Z" fill="#CAB28B" stroke="black" stroke-miterlimit="10"/>
<path d="M94.0349 41.3932L89.8013 25.0595L92.0239 19.5914L96.6457 19.2739L96.9632 40.6171L94.0349 41.3932Z" fill="#CAB28B" stroke="black" stroke-miterlimit="10"/>
<path d="M100.139 40.1232L96.8574 19.4503L101.091 13.1356L104.372 16.4164L102.679 40.1584L100.139 40.1232Z" fill="#CAB28B" stroke="black" stroke-miterlimit="10"/>
<path d="M108.465 177.883C146.694 177.883 177.685 146.579 177.685 107.963C177.685 69.3464 146.694 38.0418 108.465 38.0418C70.2352 38.0418 39.2441 69.3464 39.2441 107.963C39.2441 146.579 70.2352 177.883 108.465 177.883Z" fill="white" stroke="black" stroke-miterlimit="10"/>
<path d="M163.249 85.4283L163.25 85.4301C166.048 92.3907 167.553 99.9826 167.553 107.963C167.553 115.941 166.014 123.533 163.249 130.497C154.465 152.507 133.262 168.035 108.464 168.035C83.6659 168.035 62.4282 152.506 53.6797 130.497C50.9152 123.534 49.3755 115.941 49.3755 107.963C49.3755 99.9844 50.9151 92.3918 53.6795 85.4287C62.4633 63.4186 83.7015 47.8904 108.464 47.8904C133.228 47.8904 154.501 63.419 163.249 85.4283Z" fill="white" stroke="#FF0000" stroke-miterlimit="10"/>
<path d="M165.16 107.963C165.16 115.441 163.714 122.603 161.068 129.129C152.706 149.802 132.42 164.407 108.747 164.407C85.0734 164.407 64.7871 149.802 56.4256 129.129C53.7795 122.603 52.333 115.441 52.333 107.963C52.333 100.484 53.7795 93.3222 56.4256 86.7958C64.7871 66.123 85.0734 51.5179 108.747 51.5179C132.42 51.5179 152.706 66.123 161.068 86.7958C163.679 93.3222 165.16 100.484 165.16 107.963Z" fill="white"/>
<path fill-rule="evenodd" clip-rule="evenodd" d="M52.9917 116.637C53.6592 120.987 54.8222 125.175 56.4255 129.129C64.787 149.802 85.0734 164.407 108.747 164.407C132.42 164.407 152.706 149.802 161.068 129.129C162.671 125.175 163.834 120.987 164.502 116.637H52.9917Z" fill="#FF0000"/>
<path d="M56.2842 128.776C53.6029 122.144 52.2622 115.159 52.2622 107.963C52.2622 100.766 53.6029 93.7808 56.2842 87.1486H161.279C163.961 93.7808 165.301 100.766 165.301 107.963C165.301 115.159 163.961 122.144 161.279 128.776H56.2842Z" fill="#1768B0"/>
<path d="M103.596 74.3074C103.279 73.8841 103.349 73.2491 103.773 72.9316L112.064 66.6521C112.487 66.3346 113.122 66.4052 113.44 66.8285C113.757 67.2519 113.687 67.8869 113.263 68.2044L104.972 74.4838C104.549 74.8366 103.914 74.766 103.596 74.3074Z" fill="#CAB28B" stroke="black" stroke-miterlimit="10"/>
<path d="M113.757 151.037C114.145 152.942 114.498 155.87 113.863 159.362C112.875 164.901 109.982 168.605 108.536 170.228C107.089 168.605 104.196 164.901 103.208 159.362C102.573 155.905 102.926 152.942 103.314 151.037" fill="#CAB28B"/>
<path d="M113.757 151.037C114.145 152.942 114.498 155.87 113.863 159.362C112.875 164.901 109.982 168.605 108.536 170.228C107.089 168.605 104.196 164.901 103.208 159.362C102.573 155.905 102.926 152.942 103.314 151.037" stroke="black" stroke-miterlimit="10"/>
<path d="M108.535 157.599C102.89 154.353 97.81 150.367 93.3999 145.639C85.7793 137.49 82.2159 129.376 80.3108 125.002C77.8764 119.393 73.7486 107.786 73.5016 92.8989C73.4664 91.1703 73.5016 89.4064 73.5722 87.6777C75.9007 87.6777 78.1587 87.2897 80.2402 86.4783C87.9314 83.6208 91.4242 76.6711 92.659 73.4255L108.5 73.2491L124.341 73.4255C125.576 76.6358 129.069 83.6208 136.76 86.4783C138.877 87.2544 141.135 87.6777 143.428 87.6777C143.498 89.4064 143.534 91.1703 143.498 92.8989C143.251 107.786 139.124 119.393 136.689 125.002C134.784 129.376 131.256 137.49 123.6 145.639C119.261 150.331 114.18 154.353 108.535 157.599Z" fill="white"/>
<path d="M108.535 73.8488L113.898 73.9194L123.988 74.0252C125.364 77.4472 128.963 84.1852 136.584 87.0428C138.595 87.7836 140.747 88.2069 142.934 88.2422C143.005 89.7944 143.005 91.3466 143.005 92.9341C142.758 107.716 138.665 119.251 136.231 124.825C134.22 129.482 130.833 137.243 123.247 145.287C118.943 149.873 113.969 153.824 108.5 156.999C102.996 153.824 98.0571 149.873 93.7529 145.287C86.2029 137.208 82.8159 129.447 80.7697 124.825C78.3353 119.251 74.2427 107.716 73.9958 92.9341C73.9605 91.3819 73.9958 89.7944 74.0663 88.2422C76.289 88.1716 78.4059 87.7836 80.4168 87.0428C88.0375 84.2205 91.6361 77.4472 93.012 74.0252L103.102 73.9194L108.535 73.8488ZM108.535 72.7905C103.138 72.861 97.7396 72.8963 92.3417 72.9669C91.7066 74.6602 88.4961 82.9152 80.0993 86.0197C77.665 86.9369 75.3717 87.1839 73.5724 87.1839C73.4313 87.1839 73.2549 87.1839 73.1138 87.1839C73.0432 88.5597 72.9726 90.5353 73.0079 92.9341C73.2549 109.409 78.3 121.65 79.8524 125.249C82.0045 130.152 85.4973 137.984 93.012 146.027C98.6216 152.025 104.372 155.87 108.465 158.163H108.606C112.699 155.835 118.414 152.025 124.059 146.027C131.609 137.984 135.102 130.152 137.219 125.249C138.771 121.686 143.816 109.444 144.063 92.9341C144.098 90.5353 144.028 88.5597 143.957 87.1839C143.816 87.1839 143.64 87.1839 143.499 87.1839C141.664 87.1839 139.406 86.9369 136.972 86.0197C128.575 82.9152 125.364 74.6249 124.729 72.9669C119.331 72.8963 113.933 72.861 108.535 72.7905Z" fill="black"/>
<path d="M108.535 82.8447H108.818L120.178 82.9858C121.272 85.7375 124.059 90.9586 129.88 93.1811C131.362 93.7456 132.949 94.0631 134.572 94.1336C134.608 95.2625 134.643 96.4267 134.608 97.5908C134.431 109.162 131.327 118.193 129.457 122.532C127.904 126.166 125.329 132.234 119.613 138.513C116.368 142.041 112.663 145.11 108.535 147.544C104.407 145.075 100.703 142.041 97.4571 138.513C91.7064 132.198 89.1309 126.131 87.6139 122.532C85.7793 118.193 82.6393 109.162 82.4629 97.5908C82.4629 96.462 82.4629 95.2978 82.4982 94.1336C84.1211 94.0631 85.7087 93.7456 87.1905 93.1811C92.9765 90.9586 95.7637 85.7375 96.8927 82.9858L108.394 82.8447H108.535ZM108.535 81.7864C104.407 81.8216 100.28 81.8922 96.187 81.9275C95.7284 83.2328 93.2588 89.7239 86.8377 92.1581C84.9678 92.8636 83.2391 93.0753 81.8278 93.0753C81.722 93.0753 81.5809 93.0753 81.475 93.0753C81.4045 94.1689 81.3692 95.7211 81.4045 97.5908C81.6161 110.503 85.4265 120.098 86.626 122.92C88.2489 126.766 90.9302 132.904 96.681 139.219C100.985 143.911 105.36 146.909 108.465 148.744H108.571C111.711 146.909 116.05 143.911 120.354 139.219C126.105 132.904 128.786 126.766 130.409 122.92C131.609 120.098 135.419 110.503 135.631 97.5908C135.666 95.7211 135.596 94.1689 135.56 93.0753C135.454 93.0753 135.313 93.0753 135.207 93.0753C133.796 93.0753 132.067 92.8636 130.198 92.1581C123.812 89.7239 121.342 83.2328 120.848 81.9275C116.791 81.8922 112.663 81.8569 108.535 81.7864Z" fill="black"/>
<path d="M108.536 87.8189C119.578 87.8189 128.54 96.7795 128.54 107.821C128.54 118.863 119.578 127.824 108.536 127.824C97.4928 127.824 88.5316 118.863 88.5316 107.821C88.5316 96.7795 97.4928 87.8189 108.536 87.8189ZM108.536 86.7605C96.8931 86.7605 87.4731 96.1797 87.4731 107.821C87.4731 119.463 96.8931 128.882 108.536 128.882C120.178 128.882 129.598 119.463 129.598 107.821C129.598 96.1797 120.178 86.7605 108.536 86.7605Z" fill="black"/>
<path d="M96.3639 79.2816C97.0653 79.2816 97.634 78.713 97.634 78.0116C97.634 77.3102 97.0653 76.7416 96.3639 76.7416C95.6624 76.7416 95.0938 77.3102 95.0938 78.0116C95.0938 78.713 95.6624 79.2816 96.3639 79.2816Z" fill="black"/>
<path d="M120.461 79.2463C121.162 79.2463 121.731 78.6777 121.731 77.9763C121.731 77.2749 121.162 76.7063 120.461 76.7063C119.759 76.7063 119.19 77.2749 119.19 77.9763C119.19 78.6777 119.759 79.2463 120.461 79.2463Z" fill="black"/>
<path d="M78.7584 92.8283C79.4598 92.8283 80.0285 92.2597 80.0285 91.5583C80.0285 90.8569 79.4598 90.2883 78.7584 90.2883C78.0569 90.2883 77.4883 90.8569 77.4883 91.5583C77.4883 92.2597 78.0569 92.8283 78.7584 92.8283Z" fill="black"/>
<path d="M108.712 153.259C109.413 153.259 109.982 152.691 109.982 151.989C109.982 151.288 109.413 150.719 108.712 150.719C108.01 150.719 107.441 151.288 107.441 151.989C107.441 152.691 108.01 153.259 108.712 153.259Z" fill="black"/>
<path d="M133.373 124.966C134.074 124.966 134.643 124.398 134.643 123.696C134.643 122.995 134.074 122.426 133.373 122.426C132.671 122.426 132.103 122.995 132.103 123.696C132.103 124.398 132.671 124.966 133.373 124.966Z" fill="black"/>
<path d="M83.4508 124.966C84.1522 124.966 84.7209 124.398 84.7209 123.696C84.7209 122.995 84.1522 122.426 83.4508 122.426C82.7493 122.426 82.1807 122.995 82.1807 123.696C82.1807 124.398 82.7493 124.966 83.4508 124.966Z" fill="black"/>
<path d="M138.7 92.8283C139.402 92.8283 139.97 92.2597 139.97 91.5583C139.97 90.8569 139.402 90.2883 138.7 90.2883C137.999 90.2883 137.43 90.8569 137.43 91.5583C137.43 92.2597 137.999 92.8283 138.7 92.8283Z" fill="black"/>
<path d="M103.596 56.3863C103.279 55.9629 103.349 55.3279 103.773 55.0104L112.064 48.731C112.487 48.4135 113.122 48.484 113.44 48.9074C113.757 49.3307 113.687 49.9657 113.263 50.2832L104.972 56.5627C104.549 56.9154 103.914 56.8096 103.596 56.3863Z" fill="#CAB28B" stroke="black" stroke-miterlimit="10"/>
<path d="M113.651 47.1787C113.581 47.3904 113.475 47.6021 113.298 47.7432L107.759 51.906L104.972 54.0227C104.549 54.3402 103.914 54.2696 103.596 53.8463C103.279 53.4229 103.349 52.7879 103.773 52.4704L104.478 51.9413L111.111 46.9318H112.452C112.91 46.8965 113.298 47.0024 113.651 47.1787Z" fill="#CAB28B" stroke="black" stroke-miterlimit="10"/>
<path d="M103.596 58.9616C103.279 58.5382 103.349 57.9032 103.773 57.5857L112.064 51.3063C112.487 50.9888 113.122 51.0593 113.44 51.4826C113.757 51.906 113.687 52.541 113.263 52.8585L104.972 59.1379C104.549 59.4554 103.914 59.3849 103.596 58.9616Z" fill="#CAB28B" stroke="black" stroke-miterlimit="10"/>
<path d="M103.596 61.5016C103.279 61.0782 103.349 60.4432 103.773 60.1257L112.064 53.8463C112.487 53.5288 113.122 53.5993 113.44 54.0227C113.757 54.446 113.687 55.081 113.263 55.3985L104.972 61.678C104.549 62.0307 103.914 61.9602 103.596 61.5016Z" fill="#CAB28B" stroke="black" stroke-miterlimit="10"/>
<path d="M103.596 64.0769C103.279 63.6535 103.349 63.0185 103.773 62.701L112.064 56.4216C112.487 56.1041 113.122 56.1746 113.44 56.5979C113.757 57.0213 113.687 57.6563 113.263 57.9738L104.972 64.2532C104.549 64.606 103.914 64.5002 103.596 64.0769Z" fill="#CAB28B" stroke="black" stroke-miterlimit="10"/>
<path d="M103.596 66.6521C103.279 66.2288 103.349 65.5938 103.773 65.2763L112.064 58.9968C112.487 58.6793 113.122 58.7499 113.44 59.1732C113.757 59.5966 113.687 60.2316 113.263 60.5491L104.972 66.8285C104.549 67.146 103.914 67.0755 103.596 66.6521Z" fill="#CAB28B" stroke="black" stroke-miterlimit="10"/>
<path d="M103.596 69.1921C103.279 68.7688 103.349 68.1338 103.773 67.8163L112.064 61.5368C112.487 61.2193 113.122 61.2899 113.44 61.7132C113.757 62.1366 113.687 62.7716 113.263 63.0891L104.972 69.3685C104.549 69.7213 103.914 69.6155 103.596 69.1921Z" fill="#CAB28B" stroke="black" stroke-miterlimit="10"/>
<path d="M103.596 71.7674C103.279 71.3441 103.349 70.7091 103.773 70.3916L112.064 64.1121C112.487 63.7946 113.122 63.8652 113.44 64.2885C113.757 64.7119 113.687 65.3469 113.263 65.6644L104.972 71.9438C104.549 72.2613 103.914 72.1908 103.596 71.7674Z" fill="#CAB28B" stroke="black" stroke-miterlimit="10"/>
<path d="M100.632 70.7444C100.209 70.8502 99.8561 71.1324 99.5738 71.4499C99.3622 71.7321 98.9741 72.0849 98.4449 72.2966C98.2684 72.3671 97.3864 72.7552 96.3633 72.4377C95.2343 72.0849 94.1759 71.0266 94.1406 69.6507C94.0701 67.9927 95.5518 67.0402 95.693 66.9344C96.6808 66.3346 97.704 66.4405 98.4449 66.511C100.279 66.7227 100.95 67.4988 102.608 68.2396C105.042 69.3332 107.3 69.3332 108.5 69.298C109.488 69.298 111.746 69.2627 114.251 68.2396C115.168 67.8516 116.015 67.393 117.567 66.9696C119.543 66.4405 120.284 66.6521 120.566 66.7227C120.813 66.7932 122.33 67.2871 122.824 68.8041C123.177 69.8624 122.93 71.1324 122.083 71.9438C121.06 72.861 119.684 72.6494 119.613 72.6141C118.026 72.3319 117.743 70.8502 116.509 70.8502C115.697 70.8502 115.344 71.4852 114.356 72.1907C112.31 73.6371 109.946 73.5666 108.817 73.5313C108.147 73.496 104.372 73.3196 102.749 71.5557C102.573 71.3441 102.114 70.7796 101.373 70.7091C101.056 70.6738 100.844 70.6738 100.632 70.7444Z" fill="#CAB28B" stroke="black" stroke-miterlimit="10"/>
<path d="M114.992 49.4013C114.992 50.1068 114.71 50.7065 114.251 51.1652C113.793 51.6238 113.158 51.906 112.487 51.906H104.585C104.549 51.906 104.549 51.906 104.514 51.906C103.173 51.8707 102.08 50.7418 102.08 49.4013C102.08 48.6957 102.362 48.096 102.82 47.6374C103.279 47.1788 103.914 46.8965 104.585 46.8965H112.487C112.911 46.8965 113.299 47.0024 113.652 47.1788C114.463 47.6021 114.992 48.4488 114.992 49.4013Z" fill="#CAB28B" stroke="black" stroke-miterlimit="10"/>
<path d="M95.129 118.475C94.9878 119.11 95.1642 119.886 95.6935 120.345C95.9757 120.627 96.5755 120.945 96.9636 120.733C97.5633 120.416 97.1752 118.934 96.9636 117.064C96.9636 117.064 96.7519 115.3 96.893 111.984C96.9988 108.562 99.7154 105.952 103.173 102.671C107.936 98.12 111.323 97.6967 113.757 95.8622C114.181 95.5447 114.957 94.9097 115.803 95.0861C116.156 95.1567 116.474 95.4036 116.756 95.2272C116.968 95.1214 117.285 94.4864 117.426 94.2042C117.497 94.0631 116.968 93.9925 117.074 93.9219C118.167 93.2869 119.72 93.9219 120.566 94.2394C120.919 94.3453 121.166 94.6981 121.307 94.8039C121.731 95.192 121.484 95.6858 122.083 96.4267C122.401 96.8147 122.754 97.4145 121.942 97.7672C121.413 98.0142 121.272 97.9084 120.531 97.3086C120.39 97.2028 120.178 97.5908 120.178 97.5556C120.39 97.7672 120.672 97.9789 120.813 97.9789C121.131 97.9789 120.849 98.2964 120.813 98.3317C120.743 98.4728 120.143 98.0495 119.261 97.9789C118.873 97.9436 118.52 97.9436 118.132 98.0847C117.356 98.4022 117.426 99.1431 116.615 99.9192C116.015 100.484 115.803 100.307 115.345 100.695C114.322 101.648 114.181 103.941 115.274 105.493C115.909 106.41 117.038 107.151 118.202 107.222C118.379 107.222 118.52 107.222 118.626 107.222C118.696 107.398 118.943 107.857 118.732 108.209C118.485 108.668 117.779 108.668 117.25 108.668C116.156 108.703 115.345 108.351 115.133 108.245C113.687 107.574 112.91 106.446 112.558 105.881C112.24 105.423 111.852 104.682 111.57 103.659C111.393 104.505 110.97 106.058 109.594 107.186C109.382 107.363 109.135 107.539 108.924 107.645C108.853 107.786 108.465 108.88 109.065 109.868C109.418 110.432 109.947 110.714 110.159 110.82C110.264 111.067 110.405 111.526 110.229 111.737C109.947 112.055 108.959 111.667 108.43 111.243C107.124 110.15 107.477 107.927 107.512 107.574C106.63 108.245 105.748 108.915 104.902 109.585C104.866 109.656 104.337 110.996 105.043 111.843C105.396 112.231 105.854 112.408 106.101 112.478C106.772 112.69 107.336 112.584 107.618 112.513C107.865 113.184 107.689 113.466 107.618 113.572C107.124 114.207 105.431 113.572 104.937 113.431C104.408 113.254 104.02 113.043 103.773 112.866C103.173 114.524 102.361 115.371 101.691 115.865C101.197 116.218 100.421 116.641 99.539 117.593C99.0804 118.087 98.8334 118.475 98.8334 118.969C98.8334 119.005 98.8687 119.675 99.3274 120.063C99.7154 120.38 100.068 120.239 100.315 120.557C100.492 120.804 100.562 121.192 100.386 121.439C100.139 121.827 99.4685 121.721 99.0804 121.58C98.6923 121.403 98.4806 121.121 98.3395 120.91C98.2689 120.839 97.8809 120.239 97.8456 119.463C97.8103 118.264 98.6923 117.805 99.1157 116.676C99.3626 115.971 99.4685 114.912 98.8334 113.36C98.7276 114.136 98.5865 115.336 98.4806 116.782C98.2337 119.745 98.3748 120.91 97.528 121.545C96.9636 121.968 96.1168 122.003 95.517 121.686C94.8467 121.333 94.635 120.627 94.4586 119.886C94.4233 119.71 94.2469 119.11 94.4233 118.44C94.4939 118.228 94.5645 118.052 94.7409 117.946C94.9173 117.84 95.1995 117.77 95.3054 117.911C95.3406 117.911 95.1995 118.158 95.129 118.475Z" fill="#020304"/>
</svg>
