<svg width="89" height="88" viewBox="0 0 89 88" fill="none" xmlns="http://www.w3.org/2000/svg">
<path d="M44.9528 71.8499L45.9198 85.3147L44.2845 87.2483L42.6777 85.2293L43.7726 71.793L44.9528 71.8499Z" fill="white" stroke="black" stroke-width="0.5" stroke-miterlimit="10"/>
<path d="M43.5447 17.152L42.4355 3.1754L43.957 1L45.6065 3.14697L44.341 17.152H43.5447Z" fill="#CAB28B" stroke="black" stroke-width="0.5" stroke-miterlimit="10"/>
<path d="M45.8197 16.9814L45.6064 6.78685L47.0853 5.52142L48.2228 7.31293L46.9146 17.152L45.8197 16.9814Z" fill="#CAB28B" stroke="black" stroke-width="0.5" stroke-miterlimit="10"/>
<path d="M48.3789 17.152V8.16605H50.4692L51.4219 10.1282L49.2036 17.4933L48.3789 17.152Z" fill="#CAB28B" stroke="black" stroke-width="0.5" stroke-miterlimit="10"/>
<path d="M50.9668 17.4933V11.6069L51.4218 10.1282H53.4125L54.0382 11.9908L51.6636 17.6781L50.9668 17.4933Z" fill="#CAB28B" stroke="black" stroke-width="0.5" stroke-miterlimit="10"/>
<path d="M52.8438 18.2184L54.0382 11.9908H56.0289L56.7825 13.2846L53.6258 18.6876L52.8438 18.2184Z" fill="#CAB28B" stroke="black" stroke-width="0.5" stroke-miterlimit="10"/>
<path d="M54.8066 18.6876L56.7831 13.5406L58.461 13.2846L59.6697 14.3937L56.2144 19.2563L54.8066 18.6876Z" fill="#CAB28B" stroke="black" stroke-width="0.5" stroke-miterlimit="10"/>
<path d="M56.7832 19.6402L59.6697 14.5927L61.2765 13.9102L62.7269 15.3463L57.9634 20.5075L56.7832 19.6402Z" fill="#CAB28B" stroke="black" stroke-width="0.5" stroke-miterlimit="10"/>
<path d="M59.2852 21.2042L62.7263 15.3463L64.9303 14.4221L66.338 15.6449L60.3374 21.8156L59.2852 21.2042Z" fill="#CAB28B" stroke="black" stroke-width="0.5" stroke-miterlimit="10"/>
<path d="M61.3896 22.5834L66.338 15.7586L69.3525 15.1614V17.0383L62.1006 23.3227L61.3896 22.5834Z" fill="#CAB28B" stroke="black" stroke-width="0.5" stroke-miterlimit="10"/>
<path d="M63.167 24.0337L72.0968 13.9102L74.6136 13.7112L74.3008 16.2705L63.9633 24.9152L63.167 24.0337Z" fill="#CAB28B" stroke="black" stroke-width="0.5" stroke-miterlimit="10"/>
<path d="M64.8447 26.1807L71.8265 19.0431H73.7176L73.0636 21.2896L65.513 26.9769L64.8447 26.1807Z" fill="#CAB28B" stroke="black" stroke-width="0.5" stroke-miterlimit="10"/>
<path d="M66.3379 28.0148L72.8362 21.8156L74.4145 22.8535L73.4334 25.228L66.5796 29.0527L66.3379 28.0148Z" fill="#CAB28B" stroke="black" stroke-width="0.5" stroke-miterlimit="10"/>
<path d="M67.874 30.2471L73.1921 25.4271L74.8558 26.5361L74.0452 28.3987L68.2864 30.8016L67.874 30.2471Z" fill="#CAB28B" stroke="black" stroke-width="0.5" stroke-miterlimit="10"/>
<path d="M68.8838 32.0244L73.7184 28.6831L75.4674 29.5362L74.8559 31.1997L68.8838 32.7495V32.0244Z" fill="#CAB28B" stroke="black" stroke-width="0.5" stroke-miterlimit="10"/>
<path d="M69.708 34.5268L74.8554 31.5125L76.0641 32.2803V34.5268L69.964 34.996L69.708 34.5268Z" fill="#CAB28B" stroke="black" stroke-width="0.5" stroke-miterlimit="10"/>
<path d="M70.2344 36.2757L75.3107 34.5837L77.984 34.996V36.9013L70.7889 37.2994L70.2344 36.2757Z" fill="#CAB28B" stroke="black" stroke-width="0.5" stroke-miterlimit="10"/>
<path d="M71.2012 38.5221L77.4008 36.9297L79.8893 37.8539V39.7734L71.5709 39.8587L71.2012 38.5221Z" fill="#CAB28B" stroke="black" stroke-width="0.5" stroke-miterlimit="10"/>
<path d="M71.457 41.1383L79.8892 40.1004L82.6477 41.1383L81.6097 42.489L71.457 42.2473V41.1383Z" fill="#CAB28B" stroke="black" stroke-width="0.5" stroke-miterlimit="10"/>
<path d="M71.8981 43.2284L85.5914 42.4891L87.6532 43.8967L85.6198 45.4323L71.7559 44.6076L71.8981 43.2284Z" fill="#CAB28B" stroke="black" stroke-width="0.5" stroke-miterlimit="10"/>
<path d="M71.7277 45.8161L81.9372 45.5887L83.2028 47.0816L81.3969 48.219L71.5713 46.911L71.7277 45.8161Z" fill="#CAB28B" stroke="black" stroke-width="0.5" stroke-miterlimit="10"/>
<path d="M71.5708 48.3754H80.5432V50.4655L78.5809 51.4039L71.2295 49.2001L71.5708 48.3754Z" fill="#CAB28B" stroke="black" stroke-width="0.5" stroke-miterlimit="10"/>
<path d="M71.2293 50.9632H77.1162L78.5808 51.4039V53.3945L76.718 54.0343L71.0303 51.6599L71.2293 50.9632Z" fill="#CAB28B" stroke="black" stroke-width="0.5" stroke-miterlimit="10"/>
<path d="M70.4907 52.8258L76.7188 54.0344V56.0249L75.4249 56.7785L70.0215 53.622L70.4907 52.8258Z" fill="#CAB28B" stroke="black" stroke-width="0.5" stroke-miterlimit="10"/>
<path d="M70.0209 54.8021L75.1683 56.7785L75.4243 58.4562L74.3152 59.6506L69.4521 56.2097L70.0209 54.8021Z" fill="#CAB28B" stroke="black" stroke-width="0.5" stroke-miterlimit="10"/>
<path d="M69.0686 56.7784L74.1307 59.6505L74.8132 61.2714L73.377 62.7217L68.2012 57.9443L69.0686 56.7784Z" fill="#CAB28B" stroke="black" stroke-width="0.5" stroke-miterlimit="10"/>
<path d="M67.504 59.2809L73.3766 62.7217L74.2867 64.9256L73.0638 66.3332L66.8926 60.333L67.504 59.2809Z" fill="#CAB28B" stroke="black" stroke-width="0.5" stroke-miterlimit="10"/>
<path d="M66.1388 61.3852L72.9641 66.3332L73.5471 69.3475H71.6702L65.3994 62.0961L66.1388 61.3852Z" fill="#CAB28B" stroke="black" stroke-width="0.5" stroke-miterlimit="10"/>
<path d="M64.6888 63.1483L74.813 72.0774L74.9979 74.6082L72.4384 74.2954L63.793 63.9587L64.6888 63.1483Z" fill="#CAB28B" stroke="black" stroke-width="0.5" stroke-miterlimit="10"/>
<path d="M62.1433 64.4137L69.5659 71.4091L69.4379 73.357L67.3476 72.9162L61.2617 65.082L62.1433 64.4137Z" fill="#CAB28B" stroke="black" stroke-width="0.5" stroke-miterlimit="10"/>
<path d="M60.2241 66.1341L66.6371 72.4186L65.1725 73.9115L63.1107 73.2148L59.3994 66.4754L60.2241 66.1341Z" fill="#CAB28B" stroke="black" stroke-width="0.5" stroke-miterlimit="10"/>
<path d="M58.1618 67.7408L62.3707 71.8641L63.1101 73.2148L61.7166 74.6367L59.9392 73.7836L57.5361 68.0962L58.1618 67.7408Z" fill="#CAB28B" stroke="black" stroke-width="0.5" stroke-miterlimit="10"/>
<path d="M56.3421 68.5655L59.9396 73.7836L58.5461 75.1912L57.0815 74.8357L55.4463 68.793L56.3421 68.5655Z" fill="#CAB28B" stroke="black" stroke-width="0.5" stroke-miterlimit="10"/>
<path d="M54.622 69.6318L56.9113 74.6509L55.916 76.0301L54.2808 76.1012L53.2285 70.2432L54.622 69.6318Z" fill="#CAB28B" stroke="black" stroke-width="0.5" stroke-miterlimit="10"/>
<path d="M52.5592 70.3854L54.1518 75.9732L53.4977 77.5941L51.4643 77.6225L51.123 70.5987L52.5592 70.3854Z" fill="#CAB28B" stroke="black" stroke-width="0.5" stroke-miterlimit="10"/>
<path d="M49.6875 71.0536L51.4649 77.6225L50.5691 79.8406L48.7063 79.9828L48.5215 71.3807L49.6875 71.0536Z" fill="#CAB28B" stroke="black" stroke-width="0.5" stroke-miterlimit="10"/>
<path d="M47.2417 71.6082L48.6352 79.9117L46.9431 82.471L45.6064 81.1629L46.2037 71.594L47.2417 71.6082Z" fill="#CAB28B" stroke="black" stroke-width="0.5" stroke-miterlimit="10"/>
<path d="M44.7956 71.2669L45.9048 85.2435L44.3975 87.4189L42.748 85.272L44.0136 71.2669H44.7956Z" fill="#CAB28B" stroke="black" stroke-width="0.5" stroke-miterlimit="10"/>
<path d="M42.5207 71.4233L42.7482 81.6321L41.2694 82.8975L40.1318 81.0918L41.44 71.2669L42.5207 71.4233Z" fill="#CAB28B" stroke="black" stroke-width="0.5" stroke-miterlimit="10"/>
<path d="M39.9614 71.2669V80.2387H37.8853L36.9326 78.2908L39.1508 70.9257L39.9614 71.2669Z" fill="#CAB28B" stroke="black" stroke-width="0.5" stroke-miterlimit="10"/>
<path d="M37.3736 70.9257V76.8121L36.9328 78.2908H34.9421L34.3164 76.4282L36.6768 70.7408L37.3736 70.9257Z" fill="#CAB28B" stroke="black" stroke-width="0.5" stroke-miterlimit="10"/>
<path d="M35.5106 70.2005L34.3162 76.4282H32.3255L31.5576 75.1201L34.7285 69.7171L35.5106 70.2005Z" fill="#CAB28B" stroke="black" stroke-width="0.5" stroke-miterlimit="10"/>
<path d="M33.5344 69.7171L31.5579 74.8784L29.8942 75.1201L28.6855 74.0253L32.1266 69.1484L33.5344 69.7171Z" fill="#CAB28B" stroke="black" stroke-width="0.5" stroke-miterlimit="10"/>
<path d="M31.5574 68.7787L28.6851 73.8262L27.0783 74.5087L25.6279 73.0727L30.3914 67.9114L31.5574 68.7787Z" fill="#CAB28B" stroke="black" stroke-width="0.5" stroke-miterlimit="10"/>
<path d="M29.069 67.2005L25.6279 73.0727L23.4239 73.9826L22.002 72.7741L28.0168 66.6033L29.069 67.2005Z" fill="#CAB28B" stroke="black" stroke-width="0.5" stroke-miterlimit="10"/>
<path d="M26.9648 65.8355L22.0023 72.6603L19.002 73.2575V71.3807L26.2396 65.0962L26.9648 65.8355Z" fill="#CAB28B" stroke="black" stroke-width="0.5" stroke-miterlimit="10"/>
<path d="M25.1874 64.3853L16.2576 74.5087L13.7266 74.7078L14.0394 72.1342L24.3911 63.5037L25.1874 64.3853Z" fill="#CAB28B" stroke="black" stroke-width="0.5" stroke-miterlimit="10"/>
<path d="M23.6802 62.3663L16.6131 69.7314L14.665 69.575L15.1343 67.4991L23.0118 61.4847L23.6802 62.3663Z" fill="#CAB28B" stroke="black" stroke-width="0.5" stroke-miterlimit="10"/>
<path d="M21.974 60.4468L15.6321 66.7882L14.1533 65.3095L14.8785 63.262L21.647 59.6221L21.974 60.4468Z" fill="#CAB28B" stroke="black" stroke-width="0.5" stroke-miterlimit="10"/>
<path d="M20.3956 58.3709L16.2293 62.5369L14.8784 63.262L13.4707 61.8544L14.3381 60.0913L20.0401 57.7453L20.3956 58.3709Z" fill="#CAB28B" stroke="black" stroke-width="0.5" stroke-miterlimit="10"/>
<path d="M19.5844 56.5367L14.3374 60.0913L12.9297 58.6837L13.3136 57.2334L19.3569 55.641L19.5844 56.5367Z" fill="#CAB28B" stroke="black" stroke-width="0.5" stroke-miterlimit="10"/>
<path d="M18.5323 54.8021L13.4844 57.0486L12.1194 56.0391L12.0625 54.4182L17.9351 53.4087L18.5323 54.8021Z" fill="#CAB28B" stroke="black" stroke-width="0.5" stroke-miterlimit="10"/>
<path d="M17.7933 52.7405L12.1909 54.276L10.5699 53.622L10.5557 51.5746L17.5943 51.2902L17.7933 52.7405Z" fill="#CAB28B" stroke="black" stroke-width="0.5" stroke-miterlimit="10"/>
<path d="M17.1392 49.8684L10.5556 51.5746L8.35161 50.6646L8.22363 48.802L16.8264 48.6883L17.1392 49.8684Z" fill="#CAB28B" stroke="black" stroke-width="0.5" stroke-miterlimit="10"/>
<path d="M16.6269 47.4086L8.2943 48.7309L5.74902 47.0105L7.07143 45.6882L16.6411 46.3706L16.6269 47.4086Z" fill="#CAB28B" stroke="black" stroke-width="0.5" stroke-miterlimit="10"/>
<path d="M16.3996 45.1194L2.91962 45.9725L1 44.3232L3.03338 42.7308L16.4565 43.9393L16.3996 45.1194Z" fill="#CAB28B" stroke="black" stroke-width="0.5" stroke-miterlimit="10"/>
<path d="M16.6421 42.5744L6.43252 42.8019L5.16699 41.3089L6.97286 40.1715L16.7985 41.4938L16.6421 42.5744Z" fill="#CAB28B" stroke="black" stroke-width="0.5" stroke-miterlimit="10"/>
<path d="M16.7976 40.0151H7.8252V37.9392L9.78748 36.9866L17.1531 39.2046L16.7976 40.0151Z" fill="#CAB28B" stroke="black" stroke-width="0.5" stroke-miterlimit="10"/>
<path d="M17.1537 37.4273H11.2527L9.78809 36.9866V34.996L11.6508 34.3704L17.3386 36.7306L17.1537 37.4273Z" fill="#CAB28B" stroke="black" stroke-width="0.5" stroke-miterlimit="10"/>
<path d="M17.8785 35.5647L11.6504 34.3704V32.3798L12.9444 31.612L18.3477 34.7685L17.8785 35.5647Z" fill="#CAB28B" stroke="black" stroke-width="0.5" stroke-miterlimit="10"/>
<path d="M18.3477 33.5884L13.2003 31.612L12.9443 29.9343L14.0535 28.7399L18.9165 32.1808L18.3477 33.5884Z" fill="#CAB28B" stroke="black" stroke-width="0.5" stroke-miterlimit="10"/>
<path d="M19.3003 31.6121L14.2382 28.74L13.5557 27.1333L14.9918 25.6688L20.1677 30.4461L19.3003 31.6121Z" fill="#CAB28B" stroke="black" stroke-width="0.5" stroke-miterlimit="10"/>
<path d="M20.8647 29.1238L14.9921 25.6688L14.082 23.4792L15.3049 22.0573L21.4761 28.0717L20.8647 29.1238Z" fill="#CAB28B" stroke="black" stroke-width="0.5" stroke-miterlimit="10"/>
<path d="M22.2296 27.0195L15.4043 22.0573L14.8213 19.0573H16.6983L22.969 26.2944L22.2296 27.0195Z" fill="#CAB28B" stroke="black" stroke-width="0.5" stroke-miterlimit="10"/>
<path d="M23.6944 25.2422L13.5559 16.3131L13.3711 13.7823L15.9306 14.0951L24.576 24.446L23.6944 25.2422Z" fill="#CAB28B" stroke="black" stroke-width="0.5" stroke-miterlimit="10"/>
<path d="M25.998 23.8204L18.6182 16.7539L18.7746 14.8202L20.8506 15.2894L26.8797 23.1522L25.998 23.8204Z" fill="#CAB28B" stroke="black" stroke-width="0.5" stroke-miterlimit="10"/>
<path d="M27.9176 22.1142L21.5615 15.7728L23.0403 14.2941L25.1022 15.0193L28.7423 21.7872L27.9176 22.1142Z" fill="#CAB28B" stroke="black" stroke-width="0.5" stroke-miterlimit="10"/>
<path d="M29.993 20.536L25.8268 16.37L25.1016 15.0192L26.5093 13.6116L28.2725 14.479L30.6187 20.1805L29.993 20.536Z" fill="#CAB28B" stroke="black" stroke-width="0.5" stroke-miterlimit="10"/>
<path d="M31.8273 19.7255L28.2725 14.479L29.6802 13.0714L31.1306 13.4552L32.7231 19.5123L31.8273 19.7255Z" fill="#CAB28B" stroke="black" stroke-width="0.5" stroke-miterlimit="10"/>
<path d="M33.5631 18.6734L31.3164 13.6259L32.3118 12.2609L33.947 12.204L34.9566 18.0762L33.5631 18.6734Z" fill="#CAB28B" stroke="black" stroke-width="0.5" stroke-miterlimit="10"/>
<path d="M35.6241 17.9482L34.0742 12.332L34.7425 10.7111L36.7901 10.6969L37.0603 17.735L35.6241 17.9482Z" fill="#CAB28B" stroke="black" stroke-width="0.5" stroke-miterlimit="10"/>
<path d="M38.4964 17.28L36.79 10.6969L37.6859 8.49305L39.5486 8.36508L39.6766 16.9672L38.4964 17.28Z" fill="#CAB28B" stroke="black" stroke-width="0.5" stroke-miterlimit="10"/>
<path d="M40.9562 16.7681L39.6338 8.43619L41.3401 5.89111L42.6625 7.21342L41.98 16.7823L40.9562 16.7681Z" fill="#CAB28B" stroke="black" stroke-width="0.5" stroke-miterlimit="10"/>
<path d="M44.3126 72.2907C59.7205 72.2907 72.2111 59.6737 72.2111 44.1099C72.2111 28.5462 59.7205 15.9292 44.3126 15.9292C28.9046 15.9292 16.4141 28.5462 16.4141 44.1099C16.4141 59.6737 28.9046 72.2907 44.3126 72.2907Z" fill="white" stroke="black" stroke-width="0.5" stroke-miterlimit="10"/>
<path d="M66.3478 35.0457L66.3482 35.0466C67.4737 37.8462 68.0791 40.8999 68.0791 44.1099C68.0791 47.3192 67.4598 50.3732 66.3478 53.1741C62.8145 62.0276 54.2861 68.2728 44.3125 68.2728C34.3387 68.2728 25.7963 62.0274 22.2772 53.1743C21.1652 50.3734 20.5459 47.3192 20.5459 44.1099C20.5459 40.9007 21.1652 37.8466 22.2772 35.0457C25.8105 26.1923 34.3531 19.9471 44.3125 19.9471C54.2722 19.9471 62.8288 26.1926 66.3478 35.0457Z" fill="white" stroke="#FF0000" stroke-width="0.5" stroke-miterlimit="10"/>
<path d="M67.1632 44.1099C67.1632 47.1242 66.5802 50.0105 65.5137 52.6409C62.1437 60.9729 53.9675 66.8593 44.4263 66.8593C34.8851 66.8593 26.7089 60.9729 23.3389 52.6409C22.2724 50.0105 21.6895 47.1242 21.6895 44.1099C21.6895 41.0957 22.2724 38.2093 23.3389 35.5789C26.7089 27.247 34.8851 21.3606 44.4263 21.3606C53.9675 21.3606 62.1437 27.247 65.5137 35.5789C66.5659 38.2093 67.1632 41.0957 67.1632 44.1099Z" fill="white"/>
<path fill-rule="evenodd" clip-rule="evenodd" d="M21.9551 47.606C22.2241 49.3593 22.6928 51.0471 23.339 52.6409C26.709 60.9729 34.8852 66.8593 44.4264 66.8593C53.9677 66.8593 62.1438 60.9729 65.5138 52.6409C66.16 51.0471 66.6287 49.3593 66.8978 47.606H21.9551Z" fill="#FF0000"/>
<path d="M23.2821 52.4988C22.2015 49.8257 21.6611 47.0105 21.6611 44.1099C21.6611 41.2094 22.2015 38.3942 23.2821 35.7211H65.5991C66.6798 38.3942 67.2202 41.2094 67.2202 44.1099C67.2202 47.0105 66.6798 49.8257 65.5991 52.4988H23.2821Z" fill="#1768B0"/>
<path d="M42.351 30.5456C42.223 30.375 42.2515 30.1191 42.4221 29.9911L45.7637 27.4603C45.9343 27.3323 46.1903 27.3607 46.3182 27.5314C46.4462 27.702 46.4178 27.9579 46.2471 28.0859L42.9056 30.6167C42.7349 30.7589 42.479 30.7305 42.351 30.5456Z" fill="#CAB28B" stroke="black" stroke-width="0.5" stroke-miterlimit="10"/>
<path d="M46.4459 61.4705C46.6023 62.2383 46.7445 63.4184 46.4886 64.826C46.0904 67.0583 44.9244 68.5512 44.3414 69.2053C43.7585 68.5512 42.5925 67.0583 42.1943 64.826C41.9384 63.4326 42.0806 62.2383 42.237 61.4705" fill="#CAB28B"/>
<path d="M46.4459 61.4705C46.6023 62.2383 46.7445 63.4184 46.4886 64.826C46.0904 67.0583 44.9244 68.5512 44.3414 69.2053C43.7585 68.5512 42.5925 67.0583 42.1943 64.826C41.9384 63.4326 42.0806 62.2383 42.237 61.4705" stroke="black" stroke-width="0.5" stroke-miterlimit="10"/>
<path d="M44.3413 64.1151C42.0662 62.8071 40.0186 61.2004 38.2412 59.2951C35.1698 56.0107 33.7336 52.7405 32.9657 50.9774C31.9846 48.7167 30.3209 44.0389 30.2214 38.0387C30.2072 37.342 30.2214 36.6311 30.2498 35.9344C31.1883 35.9344 32.0984 35.778 32.9373 35.451C36.0371 34.2993 37.4449 31.4983 37.9425 30.1902L44.3271 30.1191L50.7116 30.1902C51.2093 31.4841 52.617 34.2993 55.7168 35.451C56.57 35.7638 57.48 35.9344 58.4043 35.9344C58.4327 36.6311 58.4469 37.342 58.4327 38.0387C58.3332 44.0389 56.6695 48.7167 55.6884 50.9774C54.9205 52.7405 53.4986 56.0107 50.413 59.2951C48.664 61.1862 46.6164 62.8071 44.3413 64.1151Z" fill="white"/>
<path d="M44.3413 30.3608L46.5026 30.3893L50.5694 30.4319C51.124 31.8111 52.5743 34.5268 55.6457 35.6785C56.4562 35.9771 57.3236 36.1477 58.2052 36.1619C58.2337 36.7875 58.2337 37.4131 58.2337 38.053C58.1341 44.0104 56.4847 48.6598 55.5035 50.9063C54.693 52.7831 53.328 55.9112 50.2708 59.1529C48.536 61.0013 46.5311 62.5938 44.3271 63.8734C42.1088 62.5938 40.1181 61.0013 38.3834 59.1529C35.3404 55.8969 33.9753 52.7689 33.1506 50.9063C32.1695 48.6598 30.52 44.0104 30.4205 38.053C30.4063 37.4273 30.4205 36.7875 30.4489 36.1619C31.3447 36.1335 32.1979 35.9771 33.0084 35.6785C36.0798 34.541 37.5302 31.8111 38.0847 30.4319L42.1515 30.3893L44.3413 30.3608ZM44.3413 29.9343C42.1657 29.9627 39.9901 29.977 37.8146 30.0054C37.5586 30.6879 36.2647 34.015 32.8804 35.2662C31.8993 35.6358 30.975 35.7354 30.2498 35.7354C30.193 35.7354 30.1219 35.7354 30.065 35.7354C30.0366 36.2899 30.0081 37.0861 30.0223 38.053C30.1219 44.6929 32.1553 49.6267 32.7809 51.0769C33.6483 53.0533 35.056 56.2097 38.0847 59.4515C40.3456 61.8686 42.6634 63.4184 44.3129 64.3426H44.3697C46.0192 63.4042 48.3227 61.8686 50.5978 59.4515C53.6408 56.2097 55.0485 53.0533 55.9017 51.0769C56.5273 49.6409 58.5607 44.7071 58.6602 38.053C58.6745 37.0861 58.646 36.2899 58.6176 35.7354C58.5607 35.7354 58.4896 35.7354 58.4327 35.7354C57.6933 35.7354 56.7833 35.6358 55.8021 35.2662C52.4179 34.015 51.1239 30.6736 50.868 30.0054C48.6924 29.977 46.5169 29.9627 44.3413 29.9343Z" fill="black"/>
<path d="M44.3417 33.9865H44.4554L49.0341 34.0434C49.4749 35.1524 50.5982 37.2567 52.9444 38.1525C53.5417 38.3799 54.1815 38.5079 54.8356 38.5364C54.8498 38.9913 54.8641 39.4605 54.8498 39.9297C54.7787 44.5934 53.5274 48.2332 52.7738 49.9821C52.1482 51.4466 51.1101 53.8921 48.8066 56.423C47.4984 57.8448 46.0054 59.0818 44.3417 60.0629C42.678 59.0676 41.185 57.8448 39.8768 56.423C37.559 53.8779 36.521 51.4324 35.9096 49.9821C35.1702 48.2332 33.9046 44.5934 33.8335 39.9297C33.8335 39.4748 33.8335 39.0056 33.8477 38.5364C34.5018 38.5079 35.1417 38.3799 35.7389 38.1525C38.0709 37.2567 39.1943 35.1524 39.6493 34.0434L44.2848 33.9865H44.3417ZM44.3417 33.5599C42.678 33.5742 41.0143 33.6026 39.3649 33.6168C39.18 34.1429 38.1847 36.7591 35.5967 37.7401C34.8431 38.0245 34.1464 38.1098 33.5776 38.1098C33.5349 38.1098 33.478 38.1098 33.4354 38.1098C33.4069 38.5506 33.3927 39.1762 33.4069 39.9297C33.4923 45.1337 35.028 49.001 35.5114 50.1385C36.1655 51.6883 37.2462 54.1623 39.564 56.7074C41.2987 58.5984 43.0619 59.807 44.3132 60.5463H44.3559C45.6214 59.807 47.3704 58.5984 49.1052 56.7074C51.423 54.1623 52.5036 51.6883 53.1577 50.1385C53.6412 49.001 55.1769 45.1337 55.2622 39.9297C55.2764 39.1762 55.248 38.5506 55.2338 38.1098C55.1911 38.1098 55.1342 38.1098 55.0916 38.1098C54.5228 38.1098 53.826 38.0245 53.0724 37.7401C50.4987 36.7591 49.5033 34.1429 49.3043 33.6168C47.669 33.6026 46.0054 33.5884 44.3417 33.5599Z" fill="black"/>
<path d="M44.3415 35.9913C48.7922 35.9913 52.4039 39.6027 52.4039 44.0531C52.4039 48.5034 48.7922 52.1148 44.3415 52.1148C39.8909 52.1148 36.2791 48.5034 36.2791 44.0531C36.2791 39.6027 39.8909 35.9913 44.3415 35.9913ZM44.3415 35.5647C39.6491 35.5647 35.8525 39.361 35.8525 44.0531C35.8525 48.7451 39.6491 52.5414 44.3415 52.5414C49.0339 52.5414 52.8305 48.7451 52.8305 44.0531C52.8305 39.361 49.0339 35.5647 44.3415 35.5647Z" fill="black"/>
<path d="M39.4357 32.5504C39.7184 32.5504 39.9476 32.3213 39.9476 32.0386C39.9476 31.7559 39.7184 31.5267 39.4357 31.5267C39.153 31.5267 38.9238 31.7559 38.9238 32.0386C38.9238 32.3213 39.153 32.5504 39.4357 32.5504Z" fill="black"/>
<path d="M49.1476 32.5362C49.4304 32.5362 49.6595 32.3071 49.6595 32.0244C49.6595 31.7417 49.4304 31.5125 49.1476 31.5125C48.8649 31.5125 48.6357 31.7417 48.6357 32.0244C48.6357 32.3071 48.8649 32.5362 49.1476 32.5362Z" fill="black"/>
<path d="M32.34 38.0103C32.6227 38.0103 32.8519 37.7811 32.8519 37.4984C32.8519 37.2157 32.6227 36.9865 32.34 36.9865C32.0573 36.9865 31.8281 37.2157 31.8281 37.4984C31.8281 37.7811 32.0573 38.0103 32.34 38.0103Z" fill="black"/>
<path d="M44.4123 62.3662C44.695 62.3662 44.9242 62.1371 44.9242 61.8544C44.9242 61.5717 44.695 61.3425 44.4123 61.3425C44.1296 61.3425 43.9004 61.5717 43.9004 61.8544C43.9004 62.1371 44.1296 62.3662 44.4123 62.3662Z" fill="black"/>
<path d="M54.3517 50.9631C54.6345 50.9631 54.8636 50.734 54.8636 50.4513C54.8636 50.1686 54.6345 49.9394 54.3517 49.9394C54.069 49.9394 53.8398 50.1686 53.8398 50.4513C53.8398 50.734 54.069 50.9631 54.3517 50.9631Z" fill="black"/>
<path d="M34.2316 50.9631C34.5143 50.9631 34.7435 50.734 34.7435 50.4513C34.7435 50.1686 34.5143 49.9394 34.2316 49.9394C33.9489 49.9394 33.7197 50.1686 33.7197 50.4513C33.7197 50.734 33.9489 50.9631 34.2316 50.9631Z" fill="black"/>
<path d="M56.4992 38.0103C56.7819 38.0103 57.0111 37.7811 57.0111 37.4984C57.0111 37.2157 56.7819 36.9865 56.4992 36.9865C56.2165 36.9865 55.9873 37.2157 55.9873 37.4984C55.9873 37.7811 56.2165 38.0103 56.4992 38.0103Z" fill="black"/>
<path d="M42.351 23.3227C42.223 23.1521 42.2515 22.8962 42.4221 22.7682L45.7637 20.2374C45.9343 20.1094 46.1903 20.1378 46.3182 20.3085C46.4462 20.4791 46.4178 20.735 46.2471 20.863L42.9056 23.3938C42.7349 23.536 42.479 23.4934 42.351 23.3227Z" fill="#CAB28B" stroke="black" stroke-width="0.5" stroke-miterlimit="10"/>
<path d="M46.4035 19.6117C46.3751 19.6971 46.3325 19.7824 46.2614 19.8392L44.0289 21.517L42.9056 22.3701C42.7349 22.4981 42.479 22.4696 42.351 22.299C42.223 22.1284 42.2515 21.8725 42.4221 21.7445L42.7065 21.5312L45.3798 19.5122H45.9201C46.1049 19.498 46.2614 19.5407 46.4035 19.6117Z" fill="#CAB28B" stroke="black" stroke-width="0.5" stroke-miterlimit="10"/>
<path d="M42.351 24.3607C42.223 24.1901 42.2515 23.9341 42.4221 23.8062L45.7637 21.2753C45.9343 21.1473 46.1903 21.1758 46.3182 21.3464C46.4462 21.517 46.4178 21.7729 46.2471 21.9009L42.9056 24.4318C42.7349 24.5597 42.479 24.5313 42.351 24.3607Z" fill="#CAB28B" stroke="black" stroke-width="0.5" stroke-miterlimit="10"/>
<path d="M42.351 25.3844C42.223 25.2138 42.2515 24.9578 42.4221 24.8299L45.7637 22.299C45.9343 22.171 46.1903 22.1995 46.3182 22.3701C46.4462 22.5407 46.4178 22.7966 46.2471 22.9246L42.9056 25.4555C42.7349 25.5977 42.479 25.5692 42.351 25.3844Z" fill="#CAB28B" stroke="black" stroke-width="0.5" stroke-miterlimit="10"/>
<path d="M42.351 26.4223C42.223 26.2517 42.2515 25.9958 42.4221 25.8678L45.7637 23.3369C45.9343 23.209 46.1903 23.2374 46.3182 23.408C46.4462 23.5787 46.4178 23.8346 46.2471 23.9625L42.9056 26.4934C42.7349 26.6356 42.479 26.5929 42.351 26.4223Z" fill="#CAB28B" stroke="black" stroke-width="0.5" stroke-miterlimit="10"/>
<path d="M42.351 27.4603C42.223 27.2897 42.2515 27.0338 42.4221 26.9058L45.7637 24.3749C45.9343 24.247 46.1903 24.2754 46.3182 24.446C46.4462 24.6166 46.4178 24.8726 46.2471 25.0005L42.9056 27.5314C42.7349 27.6594 42.479 27.6309 42.351 27.4603Z" fill="#CAB28B" stroke="black" stroke-width="0.5" stroke-miterlimit="10"/>
<path d="M42.351 28.484C42.223 28.3134 42.2515 28.0575 42.4221 27.9295L45.7637 25.3986C45.9343 25.2707 46.1903 25.2991 46.3182 25.4697C46.4462 25.6404 46.4178 25.8963 46.2471 26.0243L42.9056 28.5551C42.7349 28.6973 42.479 28.6546 42.351 28.484Z" fill="#CAB28B" stroke="black" stroke-width="0.5" stroke-miterlimit="10"/>
<path d="M42.351 29.5219C42.223 29.3513 42.2515 29.0954 42.4221 28.9674L45.7637 26.4366C45.9343 26.3086 46.1903 26.337 46.3182 26.5076C46.4462 26.6783 46.4178 26.9342 46.2471 27.0622L42.9056 29.593C42.7349 29.721 42.479 29.6925 42.351 29.5219Z" fill="#CAB28B" stroke="black" stroke-width="0.5" stroke-miterlimit="10"/>
<path d="M41.1564 29.1096C40.9858 29.1522 40.8436 29.266 40.7298 29.3939C40.6445 29.5077 40.4881 29.6499 40.2748 29.7352C40.2037 29.7636 39.8482 29.92 39.4359 29.7921C38.9808 29.6499 38.5543 29.2233 38.54 28.6688C38.5116 28.0006 39.1088 27.6167 39.1657 27.574C39.5638 27.3323 39.9762 27.3749 40.2748 27.4034C41.0142 27.4887 41.2844 27.8015 41.9527 28.1001C42.9338 28.5408 43.8439 28.5408 44.3273 28.5266C44.7255 28.5266 45.6355 28.5124 46.6451 28.1001C47.0148 27.9437 47.3561 27.7588 47.9817 27.5882C48.778 27.3749 49.0766 27.4603 49.1904 27.4887C49.2899 27.5171 49.9014 27.7162 50.1004 28.3276C50.2426 28.7541 50.1431 29.266 49.8018 29.593C49.3895 29.9627 48.8349 29.8774 48.8065 29.8631C48.1666 29.7494 48.0528 29.1522 47.5552 29.1522C47.2281 29.1522 47.0859 29.4082 46.6878 29.6925C45.863 30.2755 44.9103 30.247 44.4553 30.2328C44.1852 30.2186 42.6637 30.1475 42.0096 29.4366C41.9385 29.3513 41.7536 29.1238 41.455 29.0954C41.3271 29.0811 41.2417 29.0811 41.1564 29.1096Z" fill="#CAB28B" stroke="black" stroke-width="0.5" stroke-miterlimit="10"/>
<path d="M46.9436 20.5075C46.9436 20.7919 46.8298 21.0336 46.645 21.2184C46.4601 21.4033 46.2042 21.517 45.934 21.517H42.7488C42.7346 21.517 42.7346 21.517 42.7204 21.517C42.1801 21.5028 41.7393 21.0478 41.7393 20.5075C41.7393 20.2231 41.853 19.9814 42.0379 19.7966C42.2227 19.6118 42.4787 19.498 42.7488 19.498H45.934C46.1046 19.498 46.261 19.5407 46.4032 19.6118C46.7303 19.7824 46.9436 20.1236 46.9436 20.5075Z" fill="#CAB28B" stroke="black" stroke-width="0.5" stroke-miterlimit="10"/>
<path d="M38.9385 48.347C38.8817 48.6029 38.9528 48.9157 39.166 49.1006C39.2798 49.2143 39.5215 49.3423 39.6779 49.257C39.9197 49.129 39.7633 48.5318 39.6779 47.7783C39.6779 47.7783 39.5926 47.0674 39.6495 45.7308C39.6922 44.3517 40.7871 43.2995 42.1806 41.9772C44.1002 40.143 45.4653 39.9724 46.4464 39.2331C46.617 39.1051 46.9299 38.8492 47.2711 38.9203C47.4133 38.9487 47.5413 39.0482 47.655 38.9771C47.7404 38.9345 47.8683 38.6786 47.9252 38.5648C47.9537 38.5079 47.7404 38.4795 47.783 38.4511C48.2238 38.1951 48.8495 38.4511 49.1907 38.579C49.3329 38.6217 49.4325 38.7639 49.4893 38.8065C49.66 38.9629 49.5604 39.162 49.8022 39.4606C49.9301 39.617 50.0723 39.8587 49.7453 40.0009C49.532 40.1004 49.4751 40.0577 49.1765 39.816C49.1196 39.7734 49.0343 39.9298 49.0343 39.9155C49.1196 40.0009 49.2334 40.0862 49.2903 40.0862C49.4183 40.0862 49.3045 40.2141 49.2903 40.2283C49.2618 40.2852 49.0201 40.1146 48.6646 40.0862C48.5082 40.0719 48.366 40.0719 48.2096 40.1288C47.8968 40.2568 47.9252 40.5554 47.5982 40.8682C47.3564 41.0957 47.2711 41.0246 47.0863 41.181C46.6739 41.5649 46.617 42.4891 47.0578 43.1147C47.3138 43.4843 47.7688 43.7829 48.238 43.8114C48.3091 43.8114 48.366 43.8114 48.4087 43.8114C48.4371 43.8825 48.5366 44.0673 48.4513 44.2095C48.3518 44.3943 48.0674 44.3943 47.8541 44.3943C47.4133 44.4085 47.0863 44.2664 47.0009 44.2237C46.418 43.9535 46.1051 43.4986 45.9629 43.2711C45.835 43.0862 45.6785 42.7876 45.5648 42.3753C45.4937 42.7166 45.3231 43.3422 44.7685 43.7971C44.6832 43.8682 44.5836 43.9393 44.4983 43.982C44.4699 44.0389 44.3135 44.4796 44.5552 44.8777C44.6974 45.1052 44.9107 45.219 44.996 45.2616C45.0387 45.3612 45.0955 45.546 45.0244 45.6313C44.9107 45.7593 44.5125 45.6029 44.2993 45.4323C43.7731 44.9915 43.9153 44.0957 43.9296 43.9535C43.5741 44.2237 43.2186 44.4938 42.8773 44.764C42.8631 44.7924 42.6498 45.3327 42.9342 45.674C43.0764 45.8304 43.2612 45.9015 43.3608 45.9299C43.6309 46.0152 43.8585 45.9725 43.9722 45.9441C44.0717 46.2143 44.0006 46.328 43.9722 46.3707C43.7731 46.6266 43.0906 46.3707 42.8915 46.3138C42.6782 46.2427 42.5218 46.1574 42.4223 46.0863C42.1806 46.7546 41.8535 47.0958 41.5833 47.2949C41.3843 47.437 41.0714 47.6077 40.716 47.9916C40.5311 48.1906 40.4316 48.347 40.4316 48.5461C40.4316 48.5603 40.4458 48.8304 40.6306 48.9868C40.7871 49.1148 40.9293 49.0579 41.0288 49.1859C41.0999 49.2854 41.1283 49.4418 41.0572 49.5413C40.9577 49.6977 40.6875 49.6551 40.5311 49.5982C40.3747 49.5271 40.2894 49.4134 40.2325 49.3281C40.2041 49.2996 40.0476 49.0579 40.0334 48.7451C40.0192 48.2617 40.3747 48.0769 40.5453 47.6219C40.6449 47.3375 40.6875 46.911 40.4316 46.2854C40.3889 46.5982 40.332 47.0816 40.2894 47.6645C40.1898 48.8589 40.2467 49.3281 39.9055 49.584C39.6779 49.7546 39.3367 49.7688 39.0949 49.6409C38.8248 49.4987 38.7395 49.2143 38.6684 48.9157C38.6541 48.8447 38.583 48.6029 38.6541 48.3328C38.6826 48.2475 38.711 48.1764 38.7821 48.1337C38.8532 48.0911 38.967 48.0626 39.0096 48.1195C39.0238 48.1195 38.967 48.219 38.9385 48.347Z" fill="#020304"/>
</svg>
