<svg width="144" height="144" viewBox="0 0 144 144" fill="none" xmlns="http://www.w3.org/2000/svg">
<path d="M114.469 100.406C105.551 100.406 98.2969 93.1517 98.2969 84.2344C98.2969 75.3171 105.551 68.0625 114.469 68.0625C123.386 68.0625 130.641 75.3171 130.641 84.2344C130.641 93.1517 123.386 100.406 114.469 100.406Z" fill="#B09B7A"/>
<path d="M29.5312 100.406C20.6139 100.406 13.3594 93.1517 13.3594 84.2344C13.3594 75.3171 20.6139 68.0625 29.5312 68.0625C38.4486 68.0625 45.7031 75.3171 45.7031 84.2344C45.7031 93.1517 38.4486 100.406 29.5312 100.406Z" fill="#B09B7A"/>
<path d="M100.125 11.25C94.7939 11.25 90.0011 8.28788 87.6173 3.52012L87.0235 2.33241C86.3089 0.902812 84.8481 0 83.25 0H60.75C59.1519 0 57.6911 0.902812 56.9765 2.33212L56.3827 3.51956C53.9989 8.28788 49.2061 11.25 43.875 11.25C41.5451 11.25 39.6562 13.1389 39.6562 15.4688V39.5429C39.6562 49.0081 42.6428 58.0252 48.2929 65.6193C53.9429 73.213 61.7217 78.6648 70.7878 81.3845C71.1833 81.5032 71.5916 81.5625 72 81.5625C72.4084 81.5625 72.8167 81.5032 73.2122 81.3845C82.2783 78.6648 90.0571 73.213 95.7071 65.6193C101.357 58.0252 104.344 49.0081 104.344 39.5429V15.4688C104.344 13.1389 102.455 11.25 100.125 11.25ZM86.9155 35.8093L71.0058 51.7191C70.182 52.5428 69.1023 52.9549 68.0228 52.9549C66.9434 52.9549 65.8634 52.5431 65.0399 51.7191L57.085 43.7642C55.4375 42.1166 55.4375 39.4456 57.085 37.798C58.7323 36.1505 61.4036 36.1505 63.0512 37.798L68.0231 42.7697L80.9499 29.8432C82.5972 28.1956 85.2685 28.1956 86.9161 29.8432C88.5631 31.4907 88.5631 34.1618 86.9155 35.8093Z" fill="#B09B7A"/>
<path d="M131.721 101.766C127.276 106.14 121.183 108.844 114.469 108.844C107.744 108.844 101.642 106.132 97.1955 101.745C94.8352 103.445 92.7346 105.484 90.9697 107.798L93.2878 109.829C100.314 115.983 104.344 124.85 104.344 134.156V144H139.781C142.111 144 144 142.111 144 139.781V125.719C144 115.87 139.153 107.134 131.721 101.766Z" fill="#B09B7A"/>
<path d="M12.2794 101.766C4.84678 107.134 0 115.87 0 125.719V139.781C0 142.111 1.88887 144 4.21875 144H39.6562V134.156C39.6562 124.85 43.686 115.983 50.7122 109.829L53.0303 107.798C51.2654 105.484 49.1647 103.445 46.8045 101.745C42.3582 106.132 36.2559 108.844 29.5312 108.844C22.8172 108.844 16.724 106.14 12.2794 101.766Z" fill="#B09B7A"/>
<path d="M87.7286 116.176C83.7585 120.319 78.1774 122.906 72 122.906C65.8226 122.906 60.2415 120.319 56.2714 116.176C51.2646 120.561 48.0938 126.993 48.0938 134.156V144H95.9062V134.156C95.9062 126.993 92.7354 120.561 87.7286 116.176Z" fill="#B09B7A"/>
<path d="M72 114.469C64.6335 114.469 58.6406 108.476 58.6406 101.109C58.6406 93.7429 64.6335 87.75 72 87.75C79.3665 87.75 85.3594 93.7429 85.3594 101.109C85.3594 108.476 79.3665 114.469 72 114.469Z" fill="#B09B7A"/>
</svg>
