<svg width="143" height="143" viewBox="0 0 143 143" fill="none" xmlns="http://www.w3.org/2000/svg">
<path d="M94.542 9.15535H75.6895V0H67.3105V9.15535H48.458V19.3039H94.542V9.15535Z" fill="#303030"/>
<path d="M143 134.621H135.738V38.2165H110.165V55.1444H122.495V63.5233H110.165V71.903H122.495V80.2819H110.165V88.662H122.495V97.0409H110.165V105.421H122.495V113.8H110.165V134.621H102.066V27.4035H40.9343V134.621H32.8347V113.8H20.6951V105.421H32.8344V97.0409H20.6951V88.662H32.8344V80.2819H20.6951V71.903H32.8344V63.5233H20.6951V55.1444H32.8344V38.2165H7.262V134.621H0V143H143V134.621ZM85.3252 55.2393V63.6183H76.3877V55.2393H85.3252ZM76.3877 46.8604V38.4815H85.3252V46.8604H76.3877ZM85.3252 71.9972V80.3761H76.3877V71.9972H85.3252ZM85.3252 88.755V97.1339H76.3877V88.755H85.3252ZM85.3252 105.513V113.892H76.3877V105.513H85.3252ZM57.6748 97.1339V88.755H66.6123V97.1339H57.6748ZM66.6123 105.513V113.892H57.6748V105.513H66.6123ZM57.6748 80.3761V71.9972H66.6123V80.3761H57.6748ZM57.6748 63.6183V55.2393H66.6123V63.6183H57.6748ZM57.6748 46.8604V38.4815H66.6123V46.8604H57.6748ZM67.3105 121.991H75.6895V134.621H67.3105V121.991Z" fill="#303030"/>
</svg>
