<svg width="144" height="98" viewBox="0 0 144 98" fill="none" xmlns="http://www.w3.org/2000/svg">
<path d="M144 75.6554C144 77.1317 142.965 78.2903 141.489 78.2903H137.48C134.787 72.3487 128.654 67.8526 121.533 67.8526C114.412 67.8526 108.28 72.3487 105.585 78.2903H53.4768V56.9702H144V75.6554Z" fill="#303030"/>
<path d="M121.533 73.4867C128.059 73.4867 133.35 78.7772 133.35 85.3036C133.35 91.8301 128.059 97.1206 121.533 97.1206C115.009 97.1133 109.723 91.8269 109.716 85.3036C109.716 78.7776 115.006 73.4867 121.533 73.4867Z" fill="#303030"/>
<path d="M1.53967 48.2859L12.7939 43.3392H47.8848V78.2903H41.0735C38.3781 72.3486 32.247 67.8525 25.126 67.8525C18.0051 67.8525 11.8722 72.3486 9.17857 78.2903H2.5127C1.03637 78.2903 0.00181961 77.1316 0.00181961 75.6553V50.8282C-0.0352287 49.7507 0.568024 48.7531 1.53967 48.2859Z" fill="#303030"/>
<path d="M24.3645 23.1879C25.7688 20.495 28.5729 18.8253 31.6098 18.8736H47.8848V37.7471H16.8081L24.3645 23.1879Z" fill="#303030"/>
<path d="M61.503 0H136.016C140.51 0 144 3.69992 144 8.19427V51.378H53.4768V8.19427C53.4768 8.18169 53.4765 8.1691 53.4765 8.15652C53.4405 3.68803 57.0341 0.0359996 61.503 0Z" fill="#303030"/>
<path d="M25.1268 73.4867C31.6532 73.487 36.9437 78.7776 36.9434 85.304C36.943 91.8304 31.6525 97.1209 25.1261 97.1206C18.6028 97.1133 13.3168 91.8269 13.3095 85.3036V85.3033C13.3098 78.7772 18.6003 73.4867 25.1268 73.4867Z" fill="#303030"/>
</svg>
